<svg xmlns="http://www.w3.org/2000/svg" xmlns:xlink="http://www.w3.org/1999/xlink" width="200" height="180" viewBox="0 0 200 180">
  <defs>
    <clipPath id="clip-path">
      <rect id="Rectangle_4394" data-name="Rectangle 4394" width="16" height="15.996" rx="3" transform="translate(0 0)" fill="#d4d4d4"/>
    </clipPath>
    <clipPath id="clip-path-2">
      <rect id="Rectangle_4611" data-name="Rectangle 4611" width="16" height="14.686"/>
    </clipPath>
    <clipPath id="clip-ICON_system">
      <rect width="200" height="180"/>
    </clipPath>
  </defs>
  <g id="ICON_system" clip-path="url(#clip-ICON_system)">
    <g id="Group_248" data-name="Group 248" transform="translate(6.729 -733.503)">
      <path id="Path_2553" data-name="Path 2553" d="M188.156,796.147h-4.364a2.616,2.616,0,0,1-2.613-2.613l-.587-9.194h10.765l-.588,9.22A2.609,2.609,0,0,1,188.156,796.147Zm-6.669-10.967.531,8.327a1.782,1.782,0,0,0,1.774,1.8h4.364a1.775,1.775,0,0,0,1.774-1.773l.532-8.354Z" transform="translate(-2.751 -5.644)"/>
      <path id="Path_2554" data-name="Path 2554" d="M184.868,786.436a.42.42,0,0,1-.42-.42v-3.29a.42.42,0,1,1,.84,0v3.29A.42.42,0,0,1,184.868,786.436Zm-3.29,0a.42.42,0,0,1-.42-.42v-3.29a.42.42,0,1,1,.84,0v3.29A.42.42,0,0,1,181.578,786.436Zm3.358-6.9a.416.416,0,0,1-.164-.033h-3.1a.434.434,0,0,1-.329,0h-4.155a.42.42,0,1,1,0-.84h3.9v-.028a2.132,2.132,0,0,1,4.265,0v.028h3.9a.42.42,0,1,1,0,.84H185.1A.417.417,0,0,1,184.936,779.536Zm-3.005-.873h2.586v-.028a1.293,1.293,0,1,0-2.586,0Z" transform="translate(0 0)"/>
    </g>
    <g id="Group_1" data-name="Group 1" transform="translate(-116.084 -27.542)">
      <rect id="Rectangle_2" data-name="Rectangle 2" width="4.136" height="4.136" rx="1.021" transform="translate(118.083 29.542)"/>
      <rect id="Rectangle_3" data-name="Rectangle 3" width="4.136" height="4.136" rx="1.042" transform="translate(124.015 29.542)"/>
      <rect id="Rectangle_4" data-name="Rectangle 4" width="4.136" height="4.136" rx="1.078" transform="translate(129.948 29.542)"/>
      <rect id="Rectangle_5" data-name="Rectangle 5" width="4.136" height="4.136" rx="1" transform="translate(118.083 35.536)"/>
      <rect id="Rectangle_6" data-name="Rectangle 6" width="4.136" height="4.136" rx="1.042" transform="translate(124.015 35.536)"/>
      <rect id="Rectangle_7" data-name="Rectangle 7" width="4.136" height="4.136" rx="1.026" transform="translate(129.948 35.536)"/>
      <rect id="Rectangle_8" data-name="Rectangle 8" width="4.136" height="4.136" rx="1.104" transform="translate(118.083 41.531)"/>
      <path id="Rectangle_9" data-name="Rectangle 9" d="M1.188,0H2.948A1.187,1.187,0,0,1,4.136,1.187V2.948A1.188,1.188,0,0,1,2.948,4.136H1.188A1.188,1.188,0,0,1,0,2.948V1.188A1.188,1.188,0,0,1,1.188,0Z" transform="translate(124.015 41.531)"/>
      <rect id="Rectangle_10" data-name="Rectangle 10" width="4.136" height="4.136" rx="1.042" transform="translate(129.948 41.531)"/>
    </g>
    <g id="Group_224" data-name="Group 224" transform="translate(-569.3 -466.985)">
      <path id="Path_2538" data-name="Path 2538" d="M624.512,470.142a.809.809,0,0,1,.809.809v12.084a.809.809,0,0,1-.809.809H613.951a.809.809,0,0,1-.809-.809v-8.659a.809.809,0,0,1,.809-.809h1.808a.809.809,0,0,0,.809-.809v-1.808a.809.809,0,0,1,.809-.809h7.136m0-1.142h-7.136a1.953,1.953,0,0,0-1.951,1.951v1.475h-1.475A1.953,1.953,0,0,0,612,474.376v8.659a1.953,1.953,0,0,0,1.951,1.951h10.562a1.953,1.953,0,0,0,1.951-1.951V470.951A1.953,1.953,0,0,0,624.512,469Z" transform="translate(0 0)" fill="#1d1d1d"/>
      <path id="Path_2539" data-name="Path 2539" d="M627.683,493.142h-7.612a.571.571,0,0,1,0-1.142h7.612a.571.571,0,0,1,0,1.142Z" transform="translate(-4.645 -14.246)" fill="#1d1d1d"/>
      <path id="Path_2540" data-name="Path 2540" d="M626.541,500.142h-6.47a.571.571,0,0,1,0-1.142h6.47a.571.571,0,0,1,0,1.142Z" transform="translate(-4.645 -18.582)" fill="#1d1d1d"/>
      <path id="Path_2541" data-name="Path 2541" d="M613.071,474.067c-.146,0-.556.647-.668.535-.223-.223.041-1.287.264-1.51l4.111-3.653a1.966,1.966,0,0,1,1.479,0c.078.16-.449.585-.671.808l-4.111,3.653A1.09,1.09,0,0,1,613.071,474.067Z" transform="translate(-0.31 -0.309)" fill="#1d1d1d"/>
      <path id="Path_2542" data-name="Path 2542" d="M634.425,477.142v2.284h-2.284v-2.284h2.284m0-1.142h-2.284A1.142,1.142,0,0,0,631,477.142v2.284a1.142,1.142,0,0,0,1.142,1.142h2.284a1.142,1.142,0,0,0,1.142-1.142v-2.284A1.142,1.142,0,0,0,634.425,476Z" transform="translate(-11.769 -4.336)" fill="#1d1d1d"/>
    </g>
    <g id="Group_195" data-name="Group 195" transform="translate(-237.842 -491.237)">
      <path id="Path_2504" data-name="Path 2504" d="M309.455,501.274a3.784,3.784,0,0,0,3.483-4.019c0-1.871-.4-4.018-3.483-4.018s-3.483,2.148-3.483,4.018A3.784,3.784,0,0,0,309.455,501.274Zm0-7.16c2.18,0,2.606,1.152,2.606,3.142a2.652,2.652,0,1,1-5.213,0C306.849,495.265,307.275,494.114,309.455,494.114Z" transform="translate(-1.925)" fill="#1d1d1d"/>
      <path id="Path_2505" data-name="Path 2505" d="M313.718,512.481c0-.019,0-.081-.005-.221-.06-3.638-.649-4.8-4.44-5.457l-.249-.037-.162.187a2.163,2.163,0,0,1-2.659.005l-.162-.2-.254.044c-3.749.653-4.37,1.847-4.437,5.343,0,.151-.006.217-.006.24,0,.123,0,.492,0,.492l.048.094c.1.193,1.113,1.885,6.141,1.885s6.041-1.692,6.14-1.885C313.671,512.972,313.716,512.6,313.718,512.481Zm-.875.15c-.247.288-1.423,1.349-5.312,1.349-3.913,0-5.079-1.074-5.312-1.347v-.227h0V512.4c.008-.079.01-.158.012-.231.058-3.029.387-3.868,3.4-4.441a.221.221,0,0,1,.173.04,3.112,3.112,0,0,0,3.462,0,.221.221,0,0,1,.173-.04c3.043.576,3.35,1.386,3.4,4.551h0c0,.067,0,.142.01.217v.013Z" transform="translate(0 -5.62)" fill="#1d1d1d"/>
    </g>
    <g id="Group_162" data-name="Group 162" transform="translate(-698.063 -295.563)">
      <path id="Path_2485" data-name="Path 2485" d="M882,300l6.117,6L882,312" fill="none" stroke="#000" stroke-linecap="round" stroke-linejoin="round" stroke-width="1.5"/>
      <path id="Path_2486" data-name="Path 2486" d="M902.156,300l-5.883,6,5.883,6" transform="translate(-8.155)" fill="none" stroke="#000" stroke-linecap="round" stroke-linejoin="round" stroke-width="1.5"/>
    </g>
    <g id="_x36__1_" transform="translate(42.5 22)">
      <g id="Group_1-2" data-name="Group 1">
        <path id="Path_2" data-name="Path 2" d="M12.8,9.6V5.333a5.333,5.333,0,1,0-10.667,0V9.6L0,13.867H4.853a2.667,2.667,0,0,0,5.227,0h4.853ZM7.467,14.933a1.554,1.554,0,0,1-1.493-1.067H8.96A1.554,1.554,0,0,1,7.467,14.933ZM1.6,12.8,3.2,9.6V5.333a4.267,4.267,0,1,1,8.533,0V9.6l1.6,3.2Z"/>
      </g>
    </g>
    <g id="Group_4914" data-name="Group 4914" transform="translate(-396 -123)">
      <path id="Subtraction_5" data-name="Subtraction 5" d="M-7373.968-1883.5H-7379a1.5,1.5,0,0,1-1.5-1.5v-6.839a1.5,1.5,0,0,1,1.5-1.5h2.065v4.775a1.5,1.5,0,0,0,1.5,1.5h2.967V-1885A1.5,1.5,0,0,1-7373.968-1883.5Z" transform="translate(7841 2043.5)" fill="none" stroke="#000" stroke-width="1"/>
      <path id="Subtraction_2" data-name="Subtraction 2" d="M6.628,9.935H1.5A1.5,1.5,0,0,1,0,8.436V1.5A1.5,1.5,0,0,1,1.5,0H4.816L8.129,3.375v5.06A1.5,1.5,0,0,1,6.628,9.935Z" transform="translate(464.065 146.5)" fill="none" stroke="#000" stroke-width="1"/>
      <path id="Path_2604" data-name="Path 2604" d="M1469.827,6508.68v3.194h3.163Z" transform="translate(-1000.951 -6362.018)" fill="none" stroke="#000" stroke-linecap="round" stroke-linejoin="round" stroke-width="1"/>
    </g>
    <g id="Group_201" data-name="Group 201" transform="translate(-748.5 -634.28)">
      <path id="Path_2510" data-name="Path 2510" d="M863.441,674.267h-9.882a2.06,2.06,0,0,1-2.059-2.056v-8.774a2.06,2.06,0,0,1,2.059-2.056h9.882a2.06,2.06,0,0,1,2.059,2.056v8.774A2.06,2.06,0,0,1,863.441,674.267Zm-11.118-8.773v6.717a1.236,1.236,0,0,0,1.235,1.234h9.882a1.236,1.236,0,0,0,1.235-1.234v-6.717Zm0-.822h12.353v-1.234a1.236,1.236,0,0,0-1.235-1.234h-9.882a1.236,1.236,0,0,0-1.235,1.234Z" transform="translate(0 -2.949)"/>
      <path id="Path_2511" data-name="Path 2511" d="M865.873,659.232H864.5v-1.588a.326.326,0,0,1,.326-.326h.721a.326.326,0,0,1,.326.326Zm6.043-.131h-1.373v-1.51a.273.273,0,0,1,.273-.273h.826a.273.273,0,0,1,.273.273Z" transform="translate(-9.431)"/>
      <rect id="Rectangle_206" data-name="Rectangle 206" width="1.51" height="1.394" rx="0.697" transform="translate(859.285 663.915)"/>
      <rect id="Rectangle_207" data-name="Rectangle 207" width="1.51" height="1.394" rx="0.697" transform="translate(862.08 663.915)"/>
      <rect id="Rectangle_208" data-name="Rectangle 208" width="1.51" height="1.394" rx="0.697" transform="translate(853.696 663.915)"/>
      <rect id="Rectangle_209" data-name="Rectangle 209" width="1.51" height="1.394" rx="0.697" transform="translate(856.491 663.915)"/>
      <rect id="Rectangle_210" data-name="Rectangle 210" width="1.51" height="1.394" rx="0.697" transform="translate(859.285 666.537)"/>
      <rect id="Rectangle_211" data-name="Rectangle 211" width="1.51" height="1.394" rx="0.697" transform="translate(853.696 666.537)"/>
      <rect id="Rectangle_212" data-name="Rectangle 212" width="1.51" height="1.394" rx="0.697" transform="translate(856.491 666.537)"/>
    </g>
    <path id="Path_2603" data-name="Path 2603" d="M842.466-128.117l2.968-3.227a.766.766,0,0,0-.564-1.285h-5.936a.766.766,0,0,0-.564,1.285l2.968,3.227A.766.766,0,0,0,842.466-128.117Z" transform="translate(-712.07 159.984)"/>
    <g id="Group_161" data-name="Group 161" transform="translate(-295 -273)">
      <line id="Line_24" data-name="Line 24" y1="12" transform="translate(445 297)" fill="none" stroke="#1d1d1d" stroke-linecap="round" stroke-linejoin="round" stroke-width="1.5"/>
      <line id="Line_25" data-name="Line 25" x2="12" transform="translate(439 303)" fill="none" stroke="#1d1d1d" stroke-linecap="round" stroke-linejoin="round" stroke-width="1.5"/>
    </g>
    <g id="Group_4918" data-name="Group 4918" transform="translate(-276 -976)">
      <g id="Group_4916" data-name="Group 4916" transform="translate(442.579 1004.526)">
        <path id="Path_2606" data-name="Path 2606" d="M449.533,1018.605a.552.552,0,0,1-.355-.129l-1.98-1.658a.553.553,0,0,1,.71-.847l1.595,1.335,3.188-3.147a.553.553,0,1,1,.777.786l-3.546,3.5A.552.552,0,0,1,449.533,1018.605Z" transform="translate(-447 -1014)" fill="#1d1d1d"/>
      </g>
      <g id="Group_4917" data-name="Group 4917" transform="translate(440 999)">
        <path id="Path_2607" data-name="Path 2607" d="M447.473,1000.105a.737.737,0,0,1,.632.358l2.474,2.947a.74.74,0,0,1,.1.379v7.368a.737.737,0,0,1-.737.737h-8.105a.737.737,0,0,1-.737-.737v-10.316a.737.737,0,0,1,.737-.737h5.631m0-1.105h-5.631a1.844,1.844,0,0,0-1.842,1.842v10.316a1.844,1.844,0,0,0,1.842,1.842h8.105a1.844,1.844,0,0,0,1.842-1.842v-7.368a1.84,1.84,0,0,0-.263-.948,1.117,1.117,0,0,0-.1-.142L449,999.8a1.852,1.852,0,0,0-1.522-.8Z" transform="translate(-440 -999)" fill="#1d1d1d"/>
      </g>
    </g>
    <path id="Path_2559" data-name="Path 2559" d="M118.968,292.448a.457.457,0,0,1-.458-.458v-3.9a11.231,11.231,0,0,0-8.325,3.551.458.458,0,0,1-.8-.225,7.413,7.413,0,0,1,2.1-6,10.146,10.146,0,0,1,7.022-2.963v-3.55a.458.458,0,0,1,.786-.319l6.4,6.6a.458.458,0,0,1,0,.641l-6.4,6.486A.458.458,0,0,1,118.968,292.448Zm-.955-5.286q.488,0,1,.047a.458.458,0,0,1,.415.456v3.21l5.3-5.374-5.3-5.466v2.875a.457.457,0,0,1-.14.329.452.452,0,0,1-.334.128c-.043,0-4.285-.118-6.793,2.675a6.658,6.658,0,0,0-1.894,4.237A11.865,11.865,0,0,1,118.013,287.162Z" transform="translate(72.262 -255.448)"/>
    <g id="Group_250" data-name="Group 250" transform="translate(-853.491 -280.429)">
      <path id="Path_2550" data-name="Path 2550" d="M857.9,337.429a1.208,1.208,0,0,1-.88-.358,1.2,1.2,0,0,1-.347-.862l.04-2.977a1.2,1.2,0,0,1,.353-.835l8.214-8.214a2.586,2.586,0,0,1,3.649,0l.973.973a2.583,2.583,0,0,1,0,3.648l-8.217,8.216a1.2,1.2,0,0,1-.828.352l-2.958.057Zm9.205-12.968a1.539,1.539,0,0,0-1.1.451l-8.214,8.214a.17.17,0,0,0-.051.119l-.04,2.978a.168.168,0,0,0,.049.123.171.171,0,0,0,.122.051l2.961-.057a.172.172,0,0,0,.118-.05l8.217-8.217a1.55,1.55,0,0,0,0-2.189l-.974-.972A1.537,1.537,0,0,0,867.1,324.461Z" transform="translate(0 0)" fill="#1d1d1d"/>
      <path id="Path_2551" data-name="Path 2551" d="M881.77,333.952a.514.514,0,0,1-.354-.141l-3.754-3.539a.516.516,0,1,1,.708-.751l3.754,3.539a.516.516,0,0,1-.354.891Z" transform="translate(-13.663 -3.904)" fill="#1d1d1d"/>
    </g>
    <path id="dashboard" d="M1168.1,2542.509a1.678,1.678,0,0,1-1.615-1.408,1.629,1.629,0,0,1,.818-1.519l.8-4.055.8,4.055a1.629,1.629,0,0,1,.818,1.519A1.774,1.774,0,0,1,1168.1,2542.509Zm-4.166-9.283.929-.671,1.342,1.844-.929.671Zm-2,3.348,2.175.7.347-1.084-2.168-.7Zm.354,3.871,2.168-.7-.347-1.084-2.175.708Zm11.974-1.077-2.175-.708-.354,1.084,2.175.7Zm-.354-3.878-2.175.7.354,1.084,2.175-.7Zm-2.573-2.935-1.342,1.844.922.671,1.349-1.844Zm-3.812-.862v2.278h1.143v-2.278Zm7.624,6.267a7.053,7.053,0,1,0-13.508,2.883,6.228,6.228,0,0,0-.833.4,7.9,7.9,0,0,1-.708-3.281,8,8,0,0,1,16,0,7.9,7.9,0,0,1-.708,3.281,6.325,6.325,0,0,0-.833-.4,7.225,7.225,0,0,0,.59-2.883Z" transform="translate(-1138.1 -2526)" fill="#1d1d1d" fill-rule="evenodd"/>
    <path id="Calendar" d="M1229.98,2533.5v-2.34c0-1.507-1.188-2.014-2.651-2.014a.458.458,0,0,0-.442.463.446.446,0,0,0,.442.457c.971,0,1.76.094,1.76,1.094v1.21h-13.1v-1.21c0-1,.79-1.094,1.76-1.094a.452.452,0,0,0,.442-.456.459.459,0,0,0-.449-.464c-1.456,0-2.644.507-2.644,2.014v9.99c0,1.507,1.188,2.007,2.644,2.007h4.4c.876,0,.782-.92-.065-.92h-4.339c-.971,0-1.753-.087-1.753-1.087v-7.86h13.1v.188a.52.52,0,0,0,.543.572C1229.937,2534.072,1229.951,2533.666,1229.98,2533.5Zm-9.577-3.441h4.245a.446.446,0,0,0,.449-.449.453.453,0,0,0-.449-.456H1220.4a.452.452,0,0,0-.449.456.447.447,0,0,0,.449.449Zm-1.449,4.354h-1.029a.46.46,0,0,0-.449.464.453.453,0,0,0,.449.456h1.029a.451.451,0,0,0,.442-.456.458.458,0,0,0-.442-.464Zm.159-2.89a.447.447,0,0,0,.442-.456v-2.651a.454.454,0,0,0-.442-.463.459.459,0,0,0-.449.463v2.652a.453.453,0,0,0,.449.456Zm6.9,0a.453.453,0,0,0,.449-.456v-2.651a.449.449,0,0,0-.9,0v2.651a.453.453,0,0,0,.449.456Zm-3.021,2.89h-1.021a.46.46,0,0,0-.449.464.453.453,0,0,0,.449.456H1223a.453.453,0,0,0,.449-.456.459.459,0,0,0-.449-.463Zm-4.042,2.6h-1.029a.453.453,0,0,0-.449.456.459.459,0,0,0,.449.464h1.029a.458.458,0,0,0,.442-.464A.451.451,0,0,0,1218.954,2537.013Zm7.889-2.507a4.121,4.121,0,1,1-3.984,4.122A4.057,4.057,0,0,1,1226.843,2534.506Zm-.007.927a3.17,3.17,0,1,1-3.093,3.173,3.131,3.131,0,0,1,3.093-3.173Zm1.355,1.956-1.731,1.84-.833-.855a.4.4,0,0,0-.572-.058.353.353,0,0,0,.007.55l1.2,1.224a.29.29,0,0,0,.2.087.3.3,0,0,0,.21-.087l2.043-2.093a.47.47,0,0,0,.051-.623.391.391,0,0,0-.572.014Zm-9.237,2.326h-1.029a.459.459,0,0,0-.449.463.453.453,0,0,0,.449.456h1.029a.451.451,0,0,0,.442-.456.458.458,0,0,0-.442-.464Zm4.2-2.282-.681-.42h-.5a.453.453,0,0,0-.449.456.459.459,0,0,0,.449.464h.29Zm-.109,2.7h-.29a.454.454,0,0,0-.442.464.447.447,0,0,0,.442.456h.609Z" transform="translate(-1133.1 -2525.451)" fill="#1d1d1d" fill-rule="evenodd"/>
    <g id="Group_200" data-name="Group 200" transform="translate(-598 -1697.18)">
      <g id="Path_2508" data-name="Path 2508" transform="translate(-13.682 0)" fill="none" stroke-linejoin="round">
        <path d="M724,1699.985v4.862h4.862s0-2.431-1.215-3.646A5.032,5.032,0,0,0,724,1699.985Z" stroke="none"/>
        <path d="M 724.296630859375 1699.975219726563 C 724.10986328125 1699.975219726563 723.9999389648438 1699.985229492188 723.9999389648438 1699.985229492188 L 723.9999389648438 1704.846801757813 L 728.8616333007813 1704.846801757813 C 728.8616333007813 1704.846801757813 728.8616333007813 1702.416137695313 727.6461791992188 1701.200561523438 C 726.5432739257813 1700.097778320313 724.9501953125 1699.975219726563 724.296630859375 1699.975219726563 M 724.296630859375 1698.975219726563 C 724.296630859375 1698.975219726563 724.296630859375 1698.975219726563 724.296630859375 1698.975219726563 C 725.059814453125 1698.975219726563 726.9828491210938 1699.123168945313 728.3532104492188 1700.493408203125 C 729.8193359375 1701.959594726563 729.8616333007813 1704.5556640625 729.8616333007813 1704.846801757813 C 729.8616333007813 1705.399047851563 729.4139404296875 1705.846801757813 728.8616333007813 1705.846801757813 L 723.9999389648438 1705.846801757813 C 723.4476318359375 1705.846801757813 722.9999389648438 1705.399047851563 722.9999389648438 1704.846801757813 L 722.9999389648438 1699.985229492188 C 722.9999389648438 1699.468017578125 723.394287109375 1699.0361328125 723.9093627929688 1698.989379882813 C 723.9352416992188 1698.986938476563 724.07568359375 1698.975219726563 724.296630859375 1698.975219726563 Z" stroke="none" fill="#1d1d1d"/>
      </g>
      <g id="Path_2509" data-name="Path 2509" transform="translate(0 -2.989)" fill="none" stroke-linejoin="round">
        <path d="M713.559,1711.482a6.281,6.281,0,1,1-12.559.125c0-3.511,2.566-6.607,6.077-6.607v6.482Z" stroke="none"/>
        <path d="M 707.0769653320313 1704.999877929688 C 703.5657348632813 1704.999877929688 700.9999389648438 1708.095458984375 700.9999389648438 1711.60693359375 C 700.9999389648438 1715.11767578125 703.846435546875 1717.964233398438 707.3572998046875 1717.964233398438 C 710.86865234375 1717.964233398438 713.5591430664063 1714.993286132813 713.5591430664063 1711.482055664063 L 707.0769653320313 1711.482055664063 L 707.0769653320313 1704.999877929688 M 707.0769653320313 1703.999877929688 C 707.6292114257813 1703.999877929688 708.0769653320313 1704.447631835938 708.0769653320313 1704.999877929688 L 708.0769653320313 1710.482055664063 L 713.5591430664063 1710.482055664063 C 714.1114501953125 1710.482055664063 714.5591430664063 1710.929809570313 714.5591430664063 1711.482055664063 C 714.5591430664063 1713.453735351563 713.8290405273438 1715.315795898438 712.5033569335938 1716.724975585938 C 711.1450805664063 1718.1689453125 709.3174438476563 1718.964233398438 707.3572998046875 1718.964233398438 C 703.3004150390625 1718.964233398438 699.9999389648438 1715.663818359375 699.9999389648438 1711.60693359375 C 699.9999389648438 1709.62841796875 700.7013549804688 1707.751342773438 701.9750366210938 1706.321411132813 C 703.30859375 1704.824340820313 705.1204833984375 1703.999877929688 707.0769653320313 1703.999877929688 Z" stroke="none" fill="#1d1d1d"/>
      </g>
    </g>
    <g id="Group_222" data-name="Group 222" transform="translate(-663.68 -817.526)">
      <path id="Path_2531" data-name="Path 2531" d="M793.91,821.079a6.831,6.831,0,1,1-6.831,6.832,6.832,6.832,0,0,1,6.831-6.832m0-1.079a7.91,7.91,0,1,0,7.91,7.91,7.919,7.919,0,0,0-7.91-7.91Z" transform="translate(-0.32)" fill="#1d1d1d"/>
      <path id="Path_2532" data-name="Path 2532" d="M806.54,835.961a.539.539,0,0,1-.262-1.011,8.3,8.3,0,0,0,3.857-6.719,7.846,7.846,0,0,0-3.837-6.709.539.539,0,0,1,.483-.964,8.989,8.989,0,0,1,4.433,7.673,9.333,9.333,0,0,1-4.413,7.663A.539.539,0,0,1,806.54,835.961Z" transform="translate(-13.129 -0.321)" fill="#1d1d1d"/>
      <path id="Path_2533" data-name="Path 2533" d="M799.733,836a9.257,9.257,0,0,1-4.233-7.663c0-3.213,1.789-6.441,4.253-7.673l.483.964c-2.119,1.06-3.657,3.882-3.657,6.709a8.1,8.1,0,0,0,3.677,6.719Z" transform="translate(-6.404 -0.422)" fill="#1d1d1d"/>
      <path id="Path_2534" data-name="Path 2534" d="M806.539,835.961a.539.539,0,0,1-.539-.539V821.039a.539.539,0,1,1,1.079,0v14.382A.539.539,0,0,1,806.539,835.961Z" transform="translate(-13.129 -0.32)" fill="#1d1d1d"/>
      <path id="Path_2535" data-name="Path 2535" d="M799.779,842.079H786.016a.54.54,0,0,1,0-1.079h13.763a.54.54,0,0,1,0,1.079Z" transform="translate(0.666 -13.449)" fill="#1d1d1d"/>
    </g>
    <g id="magnifying-glass" transform="translate(264.902 2)">
      <path id="Path_22" data-name="Path 22" d="M15.908,15.184,12.02,11.3a6.828,6.828,0,1,0-.674.674l3.888,3.888a.482.482,0,0,0,.337.142.467.467,0,0,0,.337-.142A.48.48,0,0,0,15.908,15.184ZM1,6.822A5.864,5.864,0,1,1,6.869,12.69,5.871,5.871,0,0,1,1,6.822Z" transform="translate(-103 0)"/>
    </g>
    <g id="Group_5202" data-name="Group 5202" transform="translate(-292 -554)">
      <path id="Path_2536" data-name="Path 2536" d="M450.909,571.091a1.818,1.818,0,1,1-1.818,1.818,1.818,1.818,0,0,1,1.818-1.818m0-1.091a2.909,2.909,0,1,0,2.909,2.909A2.912,2.912,0,0,0,450.909,570Z" transform="translate(-8.909 -8.909)" fill="#1d1d1d"/>
      <path id="Path_2537" data-name="Path 2537" d="M443.091,557.091v1.2a5.784,5.784,0,0,1,2.179.9l.845-.844,1.543,1.543-.844.845a5.786,5.786,0,0,1,.9,2.179h1.2v2.182h-1.2a5.786,5.786,0,0,1-.9,2.179l.844.845-1.543,1.543-.845-.844a5.784,5.784,0,0,1-2.179.9v1.2h-2.182v-1.2a5.784,5.784,0,0,1-2.179-.9l-.845.844-1.543-1.543.844-.845a5.784,5.784,0,0,1-.9-2.179h-1.2v-2.182h1.2a5.784,5.784,0,0,1,.9-2.179l-.844-.845,1.543-1.543.845.844a5.784,5.784,0,0,1,2.179-.9v-1.2h2.182m0-1.091h-2.182a1.091,1.091,0,0,0-1.091,1.091v.354a6.759,6.759,0,0,0-.911.376l-.25-.25a1.092,1.092,0,0,0-1.543,0l-1.543,1.543a1.091,1.091,0,0,0,0,1.543l.25.25a6.744,6.744,0,0,0-.376.911h-.355A1.091,1.091,0,0,0,434,562.909v2.182a1.091,1.091,0,0,0,1.091,1.091h.355a6.744,6.744,0,0,0,.376.911l-.25.25a1.091,1.091,0,0,0,0,1.543l1.543,1.543a1.092,1.092,0,0,0,1.543,0l.25-.25a6.759,6.759,0,0,0,.911.376v.354A1.091,1.091,0,0,0,440.909,572h2.182a1.091,1.091,0,0,0,1.091-1.091v-.354a6.756,6.756,0,0,0,.911-.376l.25.25a1.092,1.092,0,0,0,1.543,0l1.543-1.543a1.091,1.091,0,0,0,0-1.543l-.25-.25a6.748,6.748,0,0,0,.376-.911h.355A1.091,1.091,0,0,0,450,565.091v-2.182a1.091,1.091,0,0,0-1.091-1.091h-.355a6.748,6.748,0,0,0-.376-.911l.25-.25a1.091,1.091,0,0,0,0-1.543l-1.543-1.543a1.092,1.092,0,0,0-1.543,0l-.25.25a6.756,6.756,0,0,0-.911-.376v-.354A1.091,1.091,0,0,0,443.091,556Z" fill="#1d1d1d"/>
    </g>
    <g id="Group_5124" data-name="Group 5124" transform="translate(1.879 23)">
      <path id="Path_2800" data-name="Path 2800" d="M578.567,453.221a.691.691,0,0,0,.489-1.179l-6.458-6.458,6.458-6.458a.691.691,0,0,0-.977-.977l-6.946,6.946a.69.69,0,0,0,0,.977l6.946,6.946A.688.688,0,0,0,578.567,453.221Z" transform="translate(-567.931 -437.946)"/>
    </g>
    <g id="Group_5203" data-name="Group 5203" transform="translate(25.879 23)">
      <path id="Path_2800-2" data-name="Path 2800" d="M571.621,453.221a.691.691,0,0,1-.489-1.179l6.458-6.458-6.458-6.458a.691.691,0,0,1,.977-.977l6.946,6.946a.69.69,0,0,1,0,.977l-6.946,6.946A.688.688,0,0,1,571.621,453.221Z" transform="translate(-570.93 -437.946)"/>
    </g>
    <g id="Group_4982" data-name="Group 4982" transform="translate(-165.023 -110.715)">
      <path id="Path_2664" data-name="Path 2664" d="M253.728,147.124a.781.781,0,0,1-.555-.23l-5.919-5.918-.012-.012h0a.785.785,0,0,1,0-1.088h0l.012-.012,5.919-5.918a.785.785,0,0,1,1.11,1.11l-4.58,4.58h12.232a.785.785,0,1,1,0,1.57H249.7l4.58,4.58a.785.785,0,0,1-.555,1.34Z" transform="translate(0 0)"/>
    </g>
    <g id="Group_78" data-name="Group 78" transform="translate(27.857 45.106)">
      <path id="Path_18" data-name="Path 18" d="M195.911,180.513l.591,5.05a1.076,1.076,0,0,0,.961,1.048h0a1.14,1.14,0,0,0,.96-1.048l.591-5.05a1.868,1.868,0,0,0-1.552-2.287h0C196.5,178.226,195.837,179.274,195.911,180.513Z" transform="translate(-195.452 -178.226)"/>
      <circle id="Ellipse_1" data-name="Ellipse 1" cx="1.143" cy="1.143" r="1.143" transform="translate(0.865 9.433)"/>
    </g>
    <path id="Path_2525" data-name="Path 2525" d="M101.451,619.121l3.409,3.2,7.043-7.043" transform="translate(-56.667 -568.778)" fill="none" stroke="#000" stroke-linecap="round" stroke-linejoin="round" stroke-width="1.5"/>
    <g id="Group_4989" data-name="Group 4989" transform="translate(90.192 -241.441)">
      <g id="Group_205" data-name="Group 205" transform="translate(-27.192 283.441)">
        <path id="Path_2512" data-name="Path 2512" d="M-25.977,296.81a1.213,1.213,0,0,1-.879-.372,1.2,1.2,0,0,1-.335-.87l.076-2.841a1.2,1.2,0,0,1,.365-.834l7.945-7.738a2.6,2.6,0,0,1,1.793-.713h0a2.506,2.506,0,0,1,1.774.76l.917.941a2.505,2.505,0,0,1,.713,1.793,2.506,2.506,0,0,1-.76,1.774l-7.948,7.741a1.2,1.2,0,0,1-.836.343Zm8.931-12.266a1.41,1.41,0,0,0-.99.4l-7.945,7.739a.1.1,0,0,0-.032.073l-.076,2.842a.1.1,0,0,0,.029.076.1.1,0,0,0,.074.033l2.827-.017a.1.1,0,0,0,.072-.03l7.948-7.741a1.407,1.407,0,0,0,.426-1,1.409,1.409,0,0,0-.4-1.009l-.917-.941a1.407,1.407,0,0,0-1-.426h-.019Z" transform="translate(27.192 -283.441)" fill="#1d1d1d"/>
        <path id="Path_2513" data-name="Path 2513" d="M-10.469,291.451a.547.547,0,0,1-.383-.155l-3.54-3.426a.552.552,0,0,1-.013-.78.551.551,0,0,1,.78-.013l3.54,3.426a.552.552,0,0,1,.013.78A.553.553,0,0,1-10.469,291.451Z" transform="translate(21.529 -285.001)" fill="#1d1d1d"/>
      </g>
      <rect id="Rectangle_214" data-name="Rectangle 214" width="13.584" height="1.414" rx="0.707" transform="translate(-27.192 298.027)" fill="#1d1d1d"/>
    </g>
    <g id="Group_4988" data-name="Group 4988" transform="translate(126.75 -275.423)">
      <path id="Path_2514" data-name="Path 2514" d="M-36.75,332.423a7.008,7.008,0,0,1-7-7,7.008,7.008,0,0,1,7-7,7.008,7.008,0,0,1,7,7A7.008,7.008,0,0,1-36.75,332.423Zm0-13.44a6.447,6.447,0,0,0-6.44,6.44,6.447,6.447,0,0,0,6.44,6.44,6.447,6.447,0,0,0,6.44-6.44A6.447,6.447,0,0,0-36.75,318.983Zm3.963,6.79h0l-4.015-.034a.28.28,0,0,1-.277-.28v-4.2a.28.28,0,0,1,.28-.28.28.28,0,0,1,.28.28v3.923l3.737.032a.28.28,0,0,1,.277.283A.28.28,0,0,1-32.787,325.773Z" stroke="#000" stroke-width="0.5"/>
    </g>
    <g id="ic_grid" transform="translate(-1155.533 -56.833)">
      <g id="Group_4" data-name="Group 4" transform="translate(1260.333 101.333)">
        <rect id="Rectangle_56" data-name="Rectangle 56" width="4.5" height="4.5" rx="0.8" transform="translate(0)"/>
        <rect id="Rectangle_57" data-name="Rectangle 57" width="4.5" height="4.5" rx="0.8" transform="translate(6.237)"/>
        <rect id="Rectangle_58" data-name="Rectangle 58" width="4.5" height="4.5" rx="0.8" transform="translate(0 6.322)"/>
        <rect id="Rectangle_59" data-name="Rectangle 59" width="4.5" height="4.5" rx="0.8" transform="translate(6.237 6.322)"/>
      </g>
    </g>
    <g id="Group_5156" data-name="Group 5156" transform="translate(-129.123 -214.858)">
      <path id="Path_2812" data-name="Path 2812" d="M271.787,281.958h-10.62a.655.655,0,0,1,0-1.286h10.62a.655.655,0,0,1,0,1.286Z" transform="translate(-8.016 -21.367)" fill="#1d1d1d" stroke="#1d1d1d" stroke-width="0.2"/>
      <path id="Path_2813" data-name="Path 2813" d="M272,289.958H261.167a.655.655,0,0,1,0-1.286H272a.655.655,0,0,1,0,1.286Z" transform="translate(-8.016 -25.141)" fill="#1d1d1d" stroke="#1d1d1d" stroke-width="0.2"/>
      <path id="Path_2814" data-name="Path 2814" d="M272.111,297.959H261.167a.655.655,0,0,1,0-1.286h10.944a.655.655,0,0,1,0,1.286Z" transform="translate(-8.016 -28.916)" fill="#1d1d1d" stroke="#1d1d1d" stroke-width="0.2"/>
    </g>
    <g id="Group_252" data-name="Group 252" transform="translate(-292 -868)">
      <path id="Subtraction_1" data-name="Subtraction 1" d="M-8130.181,944h-.363c-1.887,0-5.456-.988-5.456-4.727a3.966,3.966,0,0,1,1.147-2.894,5.242,5.242,0,0,1,2.265-1.3c.26-.927,1.229-3.083,4.588-3.083,3.607,0,4.685,3.362,4.929,4.392a3.676,3.676,0,0,1,2.11,1A3.555,3.555,0,0,1-8120,940c0,3.164-3.568,4-5.454,4h-.727v-1.09h.727c.043,0,4.364-.033,4.364-2.91a2.375,2.375,0,0,0-2.608-2.56,2.731,2.731,0,0,0-.3.014,6.8,6.8,0,0,0-.637-2.182A3.637,3.637,0,0,0-8128,933.09a3.444,3.444,0,0,0-3.182,1.455,3.061,3.061,0,0,0-.455,1.455c-.034,0-3.273.4-3.273,3.273a3.28,3.28,0,0,0,2.183,3.182,6.423,6.423,0,0,0,2.183.455h.363V944Z" transform="translate(8570 -21)" stroke="rgba(0,0,0,0)" stroke-width="1"/>
      <g id="Group_251" data-name="Group 251" transform="translate(438.909 914.909)">
        <path id="Path_2564" data-name="Path 2564" d="M450.409,931.841a.545.545,0,0,1-.545-.545v-7.665l-1.429,1.456a.545.545,0,0,1-.779-.764l2.364-2.409a.545.545,0,0,1,.935.382v9A.545.545,0,0,1,450.409,931.841Z" transform="translate(-447.5 -921.751)"/>
        <path id="Path_2565" data-name="Path 2565" d="M457.477,925.2a.543.543,0,0,1-.4-.175l-2.182-2.364a.546.546,0,0,1,.8-.74l2.182,2.364a.545.545,0,0,1-.4.916Z" transform="translate(-452.114 -921.75)"/>
      </g>
    </g>
    <g id="Group_4945" data-name="Group 4945" transform="translate(-585.453 -204.522)">
      <path id="Path_2637" data-name="Path 2637" d="M760.754,277.234a.417.417,0,0,0-.589-.589l-4.443,4.434-4.289-4.434a.417.417,0,1,0-.589.589l4.878,4.955Z" transform="translate(0 -20)" stroke="#000" stroke-linecap="round" stroke-linejoin="round" stroke-width="0.5"/>
      <path id="Path_2638" data-name="Path 2638" d="M750.844,251.477a.417.417,0,0,0,.589.589l4.443-4.433,4.289,4.433a.417.417,0,1,0,.589-.589l-4.878-4.955Z" stroke="#000" stroke-linecap="round" stroke-linejoin="round" stroke-width="0.5"/>
    </g>
    <g id="Group_5290" data-name="Group 5290" transform="translate(-83.445 120.464)">
      <g id="Group_5292" data-name="Group 5292" transform="translate(-1 -1)">
        <path id="Path_2614" data-name="Path 2614" d="M358.609,144.028h-9.68a1.486,1.486,0,0,1-1.485-1.485V129.513a1.486,1.486,0,0,1,1.485-1.485h9.68a1.486,1.486,0,0,1,1.485,1.485v13.031A1.486,1.486,0,0,1,358.609,144.028Zm-9.68-15.733a1.219,1.219,0,0,0-1.217,1.217v13.031a1.219,1.219,0,0,0,1.217,1.217h9.68a1.219,1.219,0,0,0,1.217-1.217V129.513a1.218,1.218,0,0,0-1.217-1.217Z" transform="translate(-259.8 -185.492)" fill="#1d1d1d" stroke="#1d1d1d" stroke-width="0.8"/>
        <rect id="Rectangle_4252" data-name="Rectangle 4252" width="5.434" height="0.6" transform="translate(89.655 -53.604)" fill="#1d1d1d"/>
        <rect id="Rectangle_4253" data-name="Rectangle 4253" width="8.559" height="0.6" transform="translate(89.655 -52.697)" fill="#1d1d1d"/>
        <rect id="Rectangle_4254" data-name="Rectangle 4254" width="5.434" height="0.6" transform="translate(89.655 -49.958)" fill="#1d1d1d"/>
        <rect id="Rectangle_4255" data-name="Rectangle 4255" width="8.559" height="0.6" transform="translate(89.655 -49.051)" fill="#1d1d1d"/>
        <rect id="Rectangle_4256" data-name="Rectangle 4256" width="5.434" height="0.6" transform="translate(89.655 -46.428)" fill="#1d1d1d"/>
        <rect id="Rectangle_4257" data-name="Rectangle 4257" width="8.559" height="0.6" transform="translate(89.655 -45.522)" fill="#1d1d1d"/>
      </g>
    </g>
    <g id="Group_5291" data-name="Group 5291" transform="translate(-856 -937.545)">
      <g id="Rectangle_4588" data-name="Rectangle 4588" transform="translate(883.301 1000.545)" fill="none" stroke="#1d1d1d" stroke-linecap="round" stroke-linejoin="round" stroke-width="1">
        <rect width="5.398" height="2.249" stroke="none"/>
        <rect x="-0.5" y="-0.5" width="6.398" height="3.249" fill="none"/>
      </g>
      <g id="Rectangle_4589" data-name="Rectangle 4589" transform="translate(878 1003.75)" fill="none" stroke="#1d1d1d" stroke-linecap="round" stroke-linejoin="round" stroke-width="1">
        <rect width="16" height="11.079" stroke="none"/>
        <rect x="-0.5" y="-0.5" width="17" height="12.079" fill="none"/>
      </g>
      <path id="Path_2941" data-name="Path 2941" d="M878,1017s4.444,2.249,8,2.249,8-2.249,8-2.249" transform="translate(0 -9.298)" fill="none" stroke="#1d1d1d" stroke-linecap="round" stroke-linejoin="round" stroke-width="1"/>
      <g id="Rectangle_4590" data-name="Rectangle 4590" transform="translate(885.1 1009.485)" fill="#fff" stroke="#1d1d1d" stroke-linecap="round" stroke-linejoin="round" stroke-width="1">
        <rect width="1.799" height="1.349" stroke="none"/>
        <rect x="-0.5" y="-0.5" width="2.799" height="2.349" fill="none"/>
      </g>
      <rect id="Rectangle_4594" data-name="Rectangle 4594" width="1.799" height="1.349" transform="translate(885.101 1009.485)" fill="#fff"/>
    </g>
    <path id="Path_2945" data-name="Path 2945" d="M82.2,126.837l7.175-3.505a2.939,2.939,0,0,1,2.289,0L99,126.837a.884.884,0,0,1,.6.783c0,.186-.082.515-.6.784l-.6.289v3.3a1.01,1.01,0,0,1,.639.928,1.024,1.024,0,0,1-.619.928l.928,2.948h-2.6l.928-2.948a1,1,0,0,1,.021-1.856v-2.948l-1.093.536v4.289a.333.333,0,0,1-.062.186,7.778,7.778,0,0,1-11.856,0,.332.332,0,0,1-.062-.186V129.6L82.2,128.4a.884.884,0,0,1-.6-.784A.922.922,0,0,1,82.2,126.837Zm3.093,6.928a7.112,7.112,0,0,0,10.639,0v-3.9l-4.268,2.041a2.781,2.781,0,0,1-1.134.227,2.511,2.511,0,0,1-1.155-.247l-4.082-2Zm-2.8-5.938,2.474,1.217a.237.237,0,0,1,.227.124l4.474,2.165a2.289,2.289,0,0,0,1.732,0l5.505-2.639-6.33-.742a.321.321,0,0,1,.062-.639l7.34.866.742-.351a.416.416,0,0,0,.227-.186c0-.021-.041-.1-.227-.186l-7.34-3.526a2.13,2.13,0,0,0-.845-.165,2.09,2.09,0,0,0-.866.165l-7.175,3.505c-.186.082-.227.165-.227.206A.567.567,0,0,0,82.487,127.827Z" transform="translate(-40.6 -59.6)" fill="#1d1d1d" stroke="#1d1d1d" stroke-width="0.2"/>
    <g id="Group_4973" data-name="Group 4973" transform="translate(-521.834 -85.294)">
      <g id="Group_4972" data-name="Group 4972" transform="translate(584.5 147.47)">
        <g id="Group_4971" data-name="Group 4971" transform="translate(0)">
          <path id="Subtraction_6" data-name="Subtraction 6" d="M14459.229,1790.941h-8.5a1.393,1.393,0,0,1-1.394-1.39v-12.334a1.4,1.4,0,0,1,1.394-1.394h6.733a1.4,1.4,0,0,1,1.169.639l2.937,3.5c.016.019.028.038.041.057l.006.008a1.431,1.431,0,0,1,.2.719v5.094a2.867,2.867,0,0,0-.508-.172v-4.922a.865.865,0,0,0-.128-.454l-2.958-3.525a.886.886,0,0,0-.755-.428h-6.733a.883.883,0,0,0-.882.882v12.334a.883.883,0,0,0,.882.882h7.849a2.874,2.874,0,0,0,.65.506Z" transform="translate(-14449.334 -1775.824)" fill="#1d1d1d" stroke="#1d1d1d" stroke-width="0.2"/>
          <g id="Group_4970" data-name="Group 4970" transform="translate(7.93 9.252)">
            <path id="Path_2651" data-name="Path 2651" d="M730.5,1029.317a2.864,2.864,0,1,1-2.864,2.864,2.864,2.864,0,0,1,2.864-2.864m0-.511a3.374,3.374,0,1,0,3.374,3.374,3.378,3.378,0,0,0-3.374-3.374Z" transform="translate(-727.129 -1028.806)" fill="#1d1d1d" stroke="#1d1d1d" stroke-width="0.2"/>
          </g>
        </g>
        <path id="Path_2652" data-name="Path 2652" d="M741.447,1048.549a.255.255,0,0,1-.181-.075l-1.191-1.192a.255.255,0,0,1,.361-.361l1.011,1.011,1.692-1.692a.255.255,0,0,1,.361.361l-1.872,1.872A.256.256,0,0,1,741.447,1048.549Z" transform="translate(-730.427 -1034.699)" fill="#1d1d1d" stroke="#1d1d1d" stroke-width="0.2"/>
      </g>
      <rect id="Rectangle_4288" data-name="Rectangle 4288" width="4.818" height="0.723" rx="0.361" transform="translate(586.668 150.97)" fill="#1d1d1d" opacity="0.4"/>
      <rect id="Rectangle_4289" data-name="Rectangle 4289" width="7.709" height="0.723" rx="0.361" transform="translate(586.668 152.657)" fill="#1d1d1d" opacity="0.4"/>
      <rect id="Rectangle_4290" data-name="Rectangle 4290" width="7.709" height="0.723" rx="0.361" transform="translate(586.668 154.343)" fill="#1d1d1d" opacity="0.4"/>
    </g>
    <g id="Group_5284" data-name="Group 5284" transform="translate(-1038.5 -418.2)">
      <path id="Path" d="M5.355,0a2.08,2.08,0,0,0-.022.3A2.208,2.208,0,0,0,9.747.3,2.08,2.08,0,0,0,9.725,0H15.08V4.744a.543.543,0,0,1-.552.533H.552A.543.543,0,0,1,0,4.744V0Z" transform="translate(1121 490.723)" fill="none"/>
      <path id="Path-2" data-name="Path" d="M9.931,5.7a2.391,2.391,0,1,1-4.782,0q0-.064,0-.128H0L1.758.375A.552.552,0,0,1,2.281,0H12.8a.552.552,0,0,1,.523.375l1.758,5.2H9.928Q9.931,5.637,9.931,5.7Z" transform="translate(1121 484.965)" fill="none"/>
      <path id="Path-3" data-name="Path" d="M7.634,4.222A2.067,2.067,0,0,1,5.668,6.253,2.067,2.067,0,0,1,3.7,4.222c0-.033,0-.25,0-.282H0L1.446.29A.452.452,0,0,1,1.875,0H9.461a.452.452,0,0,1,.43.29l1.446,3.649H7.631C7.633,3.972,7.634,4.188,7.634,4.222Z" transform="translate(1122.872 486.621)" fill="rgba(0,0,0,0.4)"/>
      <g id="Rectangle" transform="translate(1121 484.965)" fill="none" stroke-linejoin="round" stroke-miterlimit="10">
        <path d="M1.758.375A.552.552,0,0,1,2.281,0H12.8a.552.552,0,0,1,.523.375l1.758,5.2v4.909a.552.552,0,0,1-.552.552H.552A.552.552,0,0,1,0,10.483V5.574Z" stroke="none"/>
        <path d="M 2.45897388458252 0.7999973297119141 L 0.8000030517578125 5.705219745635986 L 0.8000030517578125 10.23443698883057 L 14.28024291992188 10.23443698883057 L 14.28024291992188 5.705220222473145 L 12.62126541137695 0.7999973297119141 L 2.45897388458252 0.7999973297119141 M 2.280853271484375 -2.86102294921875e-06 L 12.79939270019531 -2.86102294921875e-06 C 13.03598308563232 -2.86102294921875e-06 13.2462329864502 0.1508474349975586 13.3220329284668 0.3749570846557617 L 15.08024311065674 5.573606967926025 L 15.08024311065674 10.48271751403809 C 15.08024311065674 10.7874174118042 14.83323287963867 11.03443717956543 14.52853298187256 11.03443717956543 L 0.5517129898071289 11.03443717956543 C 0.2470130920410156 11.03443717956543 2.86102294921875e-06 10.7874174118042 2.86102294921875e-06 10.48271751403809 L 2.86102294921875e-06 5.573606967926025 L 1.758213043212891 0.3749570846557617 C 1.834012985229492 0.1508474349975586 2.044262886047363 -2.86102294921875e-06 2.280853271484375 -2.86102294921875e-06 Z" stroke="none" fill="#1d1d1d"/>
      </g>
      <path id="Shape" d="M2.6,2.575a2.269,2.269,0,0,1-1.6-.646A2.168,2.168,0,0,1,.345.368C.345.239.345,0,0,0H5.189C4.86.008,4.86.242,4.86.368A2.168,2.168,0,0,1,4.2,1.929,2.269,2.269,0,0,1,2.6,2.575Z" transform="translate(1125.918 490.483)" fill="none" stroke="#1d1d1d" stroke-linecap="round" stroke-linejoin="round" stroke-miterlimit="10" stroke-width="0.8"/>
      <path id="lines" d="M9.581.791,7.54,3.082ZM4.8,0V0ZM0,.791l2.041,2.29Z" transform="translate(1123.575 480)" fill="none" stroke="rgba(29,29,29,0.4)" stroke-linecap="round" stroke-linejoin="round" stroke-miterlimit="10" stroke-width="1"/>
    </g>
    <g id="Group_5235" data-name="Group 5235" transform="translate(-172.5 -138.381)">
      <g id="Group_5233" data-name="Group 5233" transform="translate(274.5 200.381)">
        <path id="Path_2897" data-name="Path 2897" d="M284.472,215.562h-7.144a2.831,2.831,0,0,1-2.828-2.828v-9.526a2.831,2.831,0,0,1,2.828-2.828h7.144a2.831,2.831,0,0,1,2.828,2.828v4.316a.447.447,0,0,1-.893,0v-4.316a1.937,1.937,0,0,0-1.935-1.935h-7.144a1.937,1.937,0,0,0-1.935,1.935v9.526a1.937,1.937,0,0,0,1.935,1.935h7.144a1.925,1.925,0,0,0,.96-.257.447.447,0,0,1,.446.774A2.82,2.82,0,0,1,284.472,215.562Zm-1.191-4.465h-5.027a.447.447,0,1,1,0-.893h5.027a.447.447,0,0,1,0,.893Zm-.05-1.786h-4.978a.447.447,0,1,1,0-.893h4.978a.447.447,0,1,1,0,.893Zm-.1-1.786h-4.879a.447.447,0,1,1,0-.893h4.879a.447.447,0,1,1,0,.893Zm-1.637-1.786h-3.241a.447.447,0,1,1,0-.893H281.5a.447.447,0,1,1,0,.893Z" transform="translate(-274.5 -200.381)"/>
      </g>
      <g id="Group_5234" data-name="Group 5234" transform="translate(284.162 208.469)">
        <path id="Path_2898" data-name="Path 2898" d="M312.851,233.891a.445.445,0,0,1-.316-.131l-1.113-1.113a2.816,2.816,0,1,1,.631-.632l1.113,1.113a.447.447,0,0,1-.316.762Zm-3.078-5.446a1.921,1.921,0,1,0,1.359.563A1.909,1.909,0,0,0,309.773,228.445Z" transform="translate(-306.96 -227.552)"/>
      </g>
    </g>
    <path id="Path_2936" data-name="Path 2936" d="M5,9.6A5.4,5.4,0,0,1,1.44,8.2,5.206,5.206,0,0,1,0,4.309C0,1.019,3.285.053,5.022,0h6.924a4.707,4.707,0,0,1,3.122,1.057A3.1,3.1,0,0,1,16,3.4a2.964,2.964,0,0,1-.9,2.224A5.6,5.6,0,0,1,11.429,6.8h-5.9a.58.58,0,0,1-.115-.011c-.73-.143-1.965-.7-1.965-1.866,0-1.367,1.684-2.018,1.876-2.087a.594.594,0,0,1,.2-.036H11.8a.6.6,0,0,1,0,1.2H5.648c-.365.156-1,.539-1,.923,0,.354.647.605.945.677h5.855a4.477,4.477,0,0,0,2.814-.844A1.784,1.784,0,0,0,14.8,3.4a1.927,1.927,0,0,0-.556-1.472A3.537,3.537,0,0,0,11.973,1.2H5.04c-.139,0-3.84.161-3.84,3.107A4.064,4.064,0,0,0,2.277,7.343,4.221,4.221,0,0,0,5.024,8.4H13a.6.6,0,1,1,0,1.2H5Z" transform="translate(2.163 95.881) rotate(-68)"/>
    <g id="Group_5338" data-name="Group 5338" transform="translate(-792.029 -893.716)">
      <text id="A" transform="translate(816.869 988)" font-size="16" font-family="Bebeboo-SemiBold, Bebeboo" font-weight="600"><tspan x="0" y="0">A</tspan></text>
      <line id="Line_221" data-name="Line 221" x2="11.059" transform="translate(816.5 990.063)" fill="none" stroke="#000" stroke-width="1"/>
    </g>
    <path id="Path_2929" data-name="Path 2929" d="M116.6,287.823v3.889l-5.756-5.832,5.756-5.933v3.6s4.012-.15,6.429,2.541a6.3,6.3,0,0,1,1.778,5.041A10.4,10.4,0,0,0,116.6,287.823Z" transform="translate(-67.967 -196.108)" fill="none" stroke="#000" stroke-linecap="round" stroke-linejoin="round" stroke-width="1"/>
    <path id="Path_2930" data-name="Path 2930" d="M-110.209,735.712a.37.37,0,0,1-.129-.023.372.372,0,0,1-.243-.349v-3.128h-10.046a.372.372,0,0,1-.372-.372v-4.279a.372.372,0,0,1,.372-.372h10.046v-3.128a.372.372,0,0,1,.243-.349.372.372,0,0,1,.412.107l4.837,5.639a.372.372,0,0,1,0,.484l-4.837,5.639A.372.372,0,0,1-110.209,735.712Zm-10.046-4.244h10.046a.372.372,0,0,1,.372.372v2.495l3.975-4.634-3.975-4.634v2.494a.372.372,0,0,1-.372.372h-10.046Z" transform="translate(183 -638.85)" stroke="#000" stroke-width="0.2"/>
    <g id="Group_5230" data-name="Group 5230" transform="translate(-202.767 -108.494)">
      <g id="Group_5157" data-name="Group 5157" transform="translate(284.767 190.494)">
        <g id="Rectangle_4382" data-name="Rectangle 4382" transform="translate(0.408 0.872)" fill="#d4d4d4" stroke="#d4d4d4" stroke-width="1">
          <rect width="15.278" height="15.278" rx="2.5" stroke="none"/>
          <rect x="0.5" y="0.5" width="14.278" height="14.278" rx="2" fill="none"/>
        </g>
        <g id="Mask_Group_20" data-name="Mask Group 20" transform="translate(0 0)" clip-path="url(#clip-path)">
          <g id="Group_5136" data-name="Group 5136" transform="translate(1.908 3.355)" opacity="0.54">
            <path id="Intersection_1" data-name="Intersection 1" d="M0,12.829a5.951,5.951,0,0,1,6.094-5.8,5.951,5.951,0,0,1,6.094,5.8,5.951,5.951,0,0,1-6.094,5.8A5.951,5.951,0,0,1,0,12.829ZM2.813,3.047A3.047,3.047,0,1,1,5.859,6.094,3.047,3.047,0,0,1,2.813,3.047Z" fill="#fff"/>
          </g>
        </g>
      </g>
    </g>
    <path id="Path_2845" data-name="Path 2845" d="M414.454,248.219a.936.936,0,0,0-.765-.643l-4.729-.676-2.113-4.209a.948.948,0,0,0-1.692,0L403.04,246.9l-4.729.676a.937.937,0,0,0-.766.643.927.927,0,0,0,.244.959l3.417,3.274-.806,4.62a.929.929,0,0,0,.368.913.945.945,0,0,0,1,.078L406,255.878l4.233,2.187a.945.945,0,0,0,1-.079.928.928,0,0,0,.368-.913l-.806-4.62,3.417-3.274A.928.928,0,0,0,414.454,248.219Z" transform="translate(-295.752 -160.437)" stroke="#000" stroke-width="0.5"/>
    <g id="Path_2846" data-name="Path 2846" transform="translate(-275.168 -160.437)" fill="none">
      <path d="M414.454,248.219a.936.936,0,0,0-.765-.643l-4.729-.676-2.113-4.209a.948.948,0,0,0-1.692,0L403.04,246.9l-4.729.676a.937.937,0,0,0-.766.643.927.927,0,0,0,.244.959l3.417,3.274-.806,4.62a.929.929,0,0,0,.368.913.945.945,0,0,0,1,.078L406,255.878l4.233,2.187a.945.945,0,0,0,1-.079.928.928,0,0,0,.368-.913l-.806-4.62,3.417-3.274A.928.928,0,0,0,414.454,248.219Z" stroke="none"/>
      <path d="M 405.9996337890625 243.2353210449219 L 403.9336547851563 247.3496398925781 L 403.6990051269531 247.81689453125 L 403.1814270019531 247.8908386230469 L 398.5766296386719 248.5486907958984 L 401.8975524902344 251.730712890625 L 402.2824401855469 252.0994873046875 L 402.1908569335938 252.6245880126953 L 401.4056396484375 257.126220703125 L 405.5404663085938 254.9895629882813 L 405.99951171875 254.7523651123047 L 406.4585876464844 254.9895629882813 L 410.5934753417969 257.1260375976563 L 409.8082885742188 252.6245880126953 L 409.7167053222656 252.0994567871094 L 410.1016235351563 251.7306671142578 L 413.4229125976563 248.5487060546875 L 408.8177490234375 247.8908386230469 L 408.3001098632813 247.81689453125 L 408.0654907226563 247.3496246337891 L 405.9996337890625 243.2353210449219 M 405.9995422363281 242.1720275878906 C 406.3606262207031 242.1720275878906 406.6849365234375 242.3716735839844 406.845947265625 242.6922912597656 L 408.9591674804688 246.9008941650391 L 413.6886596679688 247.5765228271484 C 414.0500183105469 247.6281890869141 414.3433837890625 247.8745269775391 414.4541320800781 248.2191467285156 C 414.5640258789063 248.5615234375 414.4710083007813 248.9291381835938 414.210693359375 249.1788482666016 L 410.7934265136719 252.4527587890625 L 411.599365234375 257.0732421875 C 411.6611328125 257.4239501953125 411.5201110839844 257.7739562988281 411.2317810058594 257.9862670898438 C 411.0640563964844 258.1092834472656 410.8674621582031 258.1719665527344 410.6694030761719 258.1719665527344 C 410.5205383300781 258.1719665527344 410.3708190917969 258.1366271972656 410.2321166992188 258.06494140625 L 405.9995422363281 255.8779754638672 L 401.767333984375 258.06494140625 C 401.6285095214844 258.1366271972656 401.4787292480469 258.1719970703125 401.3297729492188 258.1719970703125 C 401.1318054199219 258.1719970703125 400.9352722167969 258.1094970703125 400.7680969238281 257.9866027832031 C 400.4793701171875 257.7745971679688 400.3384094238281 257.4246520996094 400.3997802734375 257.0732421875 L 401.2057189941406 252.4527587890625 L 397.7888793945313 249.1788482666016 C 397.5281677246094 248.9291381835938 397.4351501464844 248.5615234375 397.5450744628906 248.2195129394531 C 397.6561889648438 247.8745269775391 397.949462890625 247.6281890869141 398.310791015625 247.5765228271484 L 403.0399780273438 246.9008941650391 L 405.1536560058594 242.6916198730469 C 405.314208984375 242.3716735839844 405.6385192871094 242.1720275878906 405.9995422363281 242.1720275878906 Z" stroke="none"/>
    </g>
    <g id="Group_5339" data-name="Group 5339" transform="translate(-122.048 14.906)">
      <path id="Path_2961" data-name="Path 2961" d="M272,67h0a8,8,0,0,0,0,16h0a8,8,0,0,0,0-16Zm6.864,5.066h-3.538a10.426,10.426,0,0,0-.858-2.133h3.009a7.489,7.489,0,0,1,1.387,2.133ZM272,67.62a9.285,9.285,0,0,1,1.529,1.779h-3.057A9.274,9.274,0,0,1,272,67.62ZM269.833,69.4h-2.761a7.434,7.434,0,0,1,4.207-1.831,9.952,9.952,0,0,0-1.445,1.831Zm2.889-1.831a7.434,7.434,0,0,1,4.21,1.831h-2.764a9.952,9.952,0,0,0-1.446-1.831Zm1.137,2.364a9.9,9.9,0,0,1,.92,2.133h-5.555a9.869,9.869,0,0,1,.918-2.133Zm-7.334,0h3.006a10.4,10.4,0,0,0-.856,2.133h-3.538a7.49,7.49,0,0,1,1.387-2.133Zm-1.59,2.666h14.135a7.437,7.437,0,0,1,0,4.8H264.934a7.434,7.434,0,0,1,0-4.8ZM272,82.377a9.272,9.272,0,0,1-1.528-1.78h3.057A9.281,9.281,0,0,1,272,82.377Zm2.168-1.78h2.764a7.434,7.434,0,0,1-4.212,1.831,9.955,9.955,0,0,0,1.448-1.831Zm-2.889,1.831a7.434,7.434,0,0,1-4.207-1.831h2.761a9.954,9.954,0,0,0,1.445,1.831Zm-1.137-2.364a9.866,9.866,0,0,1-.918-2.133h5.555a9.9,9.9,0,0,1-.92,2.133Zm-5-2.133h3.538a10.4,10.4,0,0,0,.856,2.133h-3.006a7.487,7.487,0,0,1-1.387-2.133Zm12.341,2.133H274.47a10.42,10.42,0,0,0,.858-2.133h3.538a7.487,7.487,0,0,1-1.387,2.133Zm0,0" transform="translate(0)" fill="#1d1d1d" stroke="#1d1d1d" stroke-width="0.3"/>
      <path id="Path_2962" data-name="Path 2962" d="M305.107,259.936a.267.267,0,0,0,.254.2h0a.267.267,0,0,0,.255-.19l.544-1.815.544,1.815a.267.267,0,0,0,.255.19h0a.266.266,0,0,0,.254-.2l.8-2.933-.515-.14-.555,2.034-.533-1.774a.267.267,0,0,0-.511,0l-.533,1.774-.555-2.034-.515.14Zm0,0" transform="translate(-38.961 -183.534)" fill="#1d1d1d" stroke="#1d1d1d" stroke-width="0.3"/>
      <path id="Path_2963" data-name="Path 2963" d="M449.333,260.132h0a.267.267,0,0,0,.255-.19l.544-1.815.544,1.815a.267.267,0,0,0,.255.19h0a.267.267,0,0,0,.254-.2l.8-2.933-.515-.14-.555,2.034-.533-1.774a.267.267,0,0,0-.511,0l-.533,1.774-.555-2.034-.515.14.8,2.933a.267.267,0,0,0,.256.2Zm0,0" transform="translate(-178.134 -183.534)" fill="#1d1d1d" stroke="#1d1d1d" stroke-width="0.3"/>
      <path id="Path_2964" data-name="Path 2964" d="M593.3,260.132h0a.267.267,0,0,0,.255-.19l.544-1.815.545,1.815a.266.266,0,0,0,.255.19h0a.267.267,0,0,0,.254-.2l.8-2.933-.515-.14-.555,2.034-.533-1.774a.267.267,0,0,0-.511,0l-.533,1.774-.555-2.034-.515.14.8,2.933a.267.267,0,0,0,.256.2Zm0,0" transform="translate(-317.304 -183.534)" fill="#1d1d1d" stroke="#1d1d1d" stroke-width="0.3"/>
    </g>
    <path id="Path_2965" data-name="Path 2965" d="M750.881,252.99a.544.544,0,0,0,.769.769l5.8-5.786,5.6,5.786a.544.544,0,0,0,.769-.769l-6.367-6.468Z" transform="translate(-587.003 -160.387)" stroke="#000" stroke-linecap="round" stroke-linejoin="round" stroke-width="0.5"/>
    <path id="Path_2966" data-name="Path 2966" d="M750.881,247.45a.544.544,0,1,1,.769-.769l5.8,5.786,5.6-5.786a.544.544,0,1,1,.769.769l-6.367,6.468Z" transform="translate(-567.003 -159.387)" stroke="#000" stroke-linecap="round" stroke-linejoin="round" stroke-width="0.5"/>
    <g id="Group_5340" data-name="Group 5340" transform="translate(-400 -1196)">
      <path id="Path_2954" data-name="Path 2954" d="M536.909,1261.091m0,0v10.182H523.091v-10.182M536.909,1260H523.091a1.091,1.091,0,0,0-1.091,1.091v10.182a1.091,1.091,0,0,0,1.091,1.091h13.818a1.091,1.091,0,0,0,1.091-1.091v-10.182a1.091,1.091,0,0,0-1.091-1.091Z" transform="translate(0 0)"/>
      <path id="Path_2955" data-name="Path 2955" d="M530.291,1272.045a.547.547,0,0,1-.328-.11l-7.245-5.455a.545.545,0,1,1,.656-.871l6.919,5.208,6.972-5.209a.545.545,0,1,1,.653.873l-7.3,5.454A.544.544,0,0,1,530.291,1272.045Z" transform="translate(-0.318 -3.5)"/>
      <path id="Path_2956" data-name="Path 2956" d="M553.773,1282.318a.544.544,0,0,1-.386-.16l-4.727-4.727a.546.546,0,0,1,.772-.772l4.913,4.913C554.376,1282.07,554.074,1282.318,553.773,1282.318Z" transform="translate(-16.864 -10.5)"/>
      <path id="Path_2957" data-name="Path 2957" d="M524,1282.318c-.3,0-.6-.248-.572-.745l4.913-4.913a.546.546,0,0,1,.772.772l-4.727,4.727A.544.544,0,0,1,524,1282.318Z" transform="translate(-0.905 -10.5)"/>
    </g>
    <g id="Group_5341" data-name="Group 5341" transform="translate(-167 -65)">
      <g id="Group_5327" data-name="Group 5327" transform="translate(309 128)">
        <g id="Group_5326" data-name="Group 5326" transform="translate(0 0)" clip-path="url(#clip-path-2)">
          <path id="Path_2958" data-name="Path 2958" d="M321.426,127.921h-7.283v6.831h-3.252l1.132-1.132-.7-.7L309,135.246l2.324,2.324.7-.7-1.132-1.132h3.252v6.831h10.864V131.5Zm.289,1.686,1.606,1.606h-1.606Zm-6.584,11.977V135.74h4.444v-.988H315.13v-5.844h5.6V132.2h3.292v9.383Zm0,0" transform="translate(-309 -127.924)"/>
        </g>
      </g>
    </g>
    <g id="Group_5342" data-name="Group 5342" transform="translate(-156 -65)">
      <path id="Path_2959" data-name="Path 2959" d="M329.759,128h-7.3v6.85H318v.99h4.457v6.85H333.35v-11.1Zm.29,1.691,1.611,1.611h-1.611Zm-6.6,12.009V135.84h3.261l-1.135,1.135.7.7,2.331-2.331-2.331-2.331-.7.7,1.135,1.135h-3.261v-5.86h5.612v3.3h3.3V141.7Zm0,0" transform="translate(0 0)"/>
    </g>
    <g id="Group_5343" data-name="Group 5343" transform="translate(-71.658 -143.632)">
      <g id="Group_5262" data-name="Group 5262" transform="translate(257.588 205.632)">
        <path id="Path_2931" data-name="Path 2931" d="M265.244,218.919a.534.534,0,0,1-.53-.6l.326-2.778a.535.535,0,0,1,.152-.314l7.687-7.711.756.753-7.557,7.58-.227,1.932,1.951-.2L275.357,210l.756.753-7.688,7.711a.534.534,0,0,1-.322.154l-2.8.294Z" transform="translate(-264.711 -206.849)"/>
        <rect id="Rectangle_4568" data-name="Rectangle 4568" width="1.067" height="3.539" transform="translate(6.909 2.645) rotate(-44.917)"/>
        <path id="Path_2932" data-name="Path 2932" d="M290.92,209.54l-.756-.753a1.23,1.23,0,0,0,0-1.732,1.245,1.245,0,0,0-1.722,0l-.756-.753a2.282,2.282,0,0,1,3.233,0A2.3,2.3,0,0,1,290.92,209.54Z" transform="translate(-279.518 -205.632)"/>
      </g>
      <path id="Path_2933" data-name="Path 2933" d="M265.2,224.481h-8.646a2.9,2.9,0,0,1-2.891-2.891v-8.646a2.894,2.894,0,0,1,2.891-2.891h5.894v1.067h-5.894a1.826,1.826,0,0,0-1.825,1.824v8.646a1.827,1.827,0,0,0,1.825,1.825H265.2a1.826,1.826,0,0,0,1.824-1.825v-5.895h1.067v5.895A2.894,2.894,0,0,1,265.2,224.481Z" transform="translate(0 -2.849)"/>
    </g>
    <path id="_135" data-name="135" d="M11.117,14H3.883A1.879,1.879,0,0,1,2.01,12.119V7.665a.218.218,0,0,0-.217-.218H.748A.75.75,0,0,1,0,6.7V6.051a1.38,1.38,0,0,1,.483-.992L6.576.3A1.568,1.568,0,0,1,8.424.3l6.093,4.758A1.38,1.38,0,0,1,15,6.051V6.7a.75.75,0,0,1-.748.751H13.207a.218.218,0,0,0-.217.218v4.455A1.879,1.879,0,0,1,11.117,14ZM7.5,8.221a2.121,2.121,0,0,1,2.114,2.123v3.123h1.5a1.347,1.347,0,0,0,1.343-1.348V7.665a.75.75,0,0,1,.748-.75h1.045a.218.218,0,0,0,.217-.218V6.051a.861.861,0,0,0-.278-.571L8.1.722a1.042,1.042,0,0,0-1.2,0L.809,5.48a.86.86,0,0,0-.278.571V6.7a.218.218,0,0,0,.217.218H1.792a.75.75,0,0,1,.748.75v4.455a1.347,1.347,0,0,0,1.342,1.348h1.5V10.344A2.121,2.121,0,0,1,7.5,8.221Zm0,.533a1.589,1.589,0,0,0-1.584,1.59v3.123H9.084V10.344A1.589,1.589,0,0,0,7.5,8.754Z" transform="translate(2.5 103.5)" stroke="#000" stroke-width="0.4"/>
    <g id="_49" data-name="49" transform="translate(23 104)">
      <path id="Shape-2" data-name="Shape" d="M4.074,5.091H1.017A1.018,1.018,0,0,1,0,4.074V1.017A1.018,1.018,0,0,1,1.017,0H4.074A1.018,1.018,0,0,1,5.091,1.017V4.074A1.018,1.018,0,0,1,4.074,5.091ZM1.017.5A.513.513,0,0,0,.5,1.017V4.074a.513.513,0,0,0,.512.512H4.074a.513.513,0,0,0,.512-.512V1.017A.513.513,0,0,0,4.074.5Z" transform="translate(4.586 0)" stroke="#000" stroke-width="0.2"/>
      <g id="Group_12327" data-name="Group 12327" transform="translate(0 4.898)">
        <path id="Shape-3" data-name="Shape" d="M10.953,3.822h0a.252.252,0,0,0,.252-.252V2.675a1.018,1.018,0,0,0-1.017-1.017H5.855V.252A.252.252,0,0,0,5.6,0h0a.252.252,0,0,0-.252.252V1.659H1.017A1.018,1.018,0,0,0,0,2.675V3.57a.252.252,0,0,0,.252.252h0A.252.252,0,0,0,.5,3.57V2.675a.512.512,0,0,1,.512-.512H5.351V3.57a.252.252,0,0,0,.252.252h0a.252.252,0,0,0,.252-.252V2.163H10.19a.512.512,0,0,1,.512.512V3.57A.252.252,0,0,0,10.953,3.822Z" transform="translate(1.529 0)" stroke="#000" stroke-width="0.2"/>
        <path id="Shape-4" data-name="Shape" d="M2.8,3.562H.762A.763.763,0,0,1,0,2.8V.762A.763.763,0,0,1,.762,0H2.8a.763.763,0,0,1,.762.762V2.8A.763.763,0,0,1,2.8,3.562ZM.762.5A.257.257,0,0,0,.5.762V2.8a.258.258,0,0,0,.257.257H2.8A.258.258,0,0,0,3.058,2.8V.762A.257.257,0,0,0,2.8.5Z" transform="translate(10.701 3.54)" stroke="#000" stroke-width="0.2"/>
        <path id="Shape-5" data-name="Shape" d="M2.8,3.562H.762A.763.763,0,0,1,0,2.8V.762A.763.763,0,0,1,.762,0H2.8a.763.763,0,0,1,.762.762V2.8A.763.763,0,0,1,2.8,3.562ZM.762.5A.257.257,0,0,0,.5.762V2.8a.258.258,0,0,0,.257.257H2.8A.258.258,0,0,0,3.058,2.8V.762A.257.257,0,0,0,2.8.5Z" transform="translate(5.351 3.54)" stroke="#000" stroke-width="0.2"/>
        <path id="Shape-6" data-name="Shape" d="M2.8,3.562H.762A.763.763,0,0,1,0,2.8V.762A.763.763,0,0,1,.762,0H2.8a.763.763,0,0,1,.762.762V2.8A.763.763,0,0,1,2.8,3.562ZM.762.5A.257.257,0,0,0,.5.762V2.8a.258.258,0,0,0,.257.257H2.8A.258.258,0,0,0,3.058,2.8V.762A.257.257,0,0,0,2.8.5Z" transform="translate(0 3.54)" stroke="#000" stroke-width="0.2"/>
      </g>
    </g>
    <g id="_33" data-name="33" transform="translate(45 103)">
      <path id="Shape-7" data-name="Shape" d="M1.611.042A.248.248,0,0,0,1.267.11L.61,1.1.454.861a.248.248,0,0,0-.412.275l.2.3a.449.449,0,0,0,.372.213A.45.45,0,0,0,.983,1.43L1.68.385A.248.248,0,0,0,1.611.042Z" transform="translate(1.857 4.876)" stroke="#000" stroke-width="0.3"/>
      <path id="Shape-8" data-name="Shape" d="M3.547,0H.248a.248.248,0,0,0,0,.5h3.3a.248.248,0,1,0,0-.5Z" transform="translate(4.33 5.764)" stroke="#000" stroke-width="0.3"/>
      <path id="Shape-9" data-name="Shape" d="M1.611.042A.248.248,0,0,0,1.267.11L.61,1.1.454.861a.248.248,0,0,0-.412.275l.2.295a.449.449,0,0,0,.373.213A.449.449,0,0,0,.983,1.43L1.68.385A.248.248,0,0,0,1.611.042Z" transform="translate(1.857 7.412)" stroke="#000" stroke-width="0.3"/>
      <path id="Shape-10" data-name="Shape" d="M3.547,0H.248a.248.248,0,1,0,0,.5h3.3a.248.248,0,1,0,0-.5Z" transform="translate(4.33 8.3)" stroke="#000" stroke-width="0.3"/>
      <path id="Shape-11" data-name="Shape" d="M1.611.042A.248.248,0,0,0,1.267.11L.61,1.1.454.86a.248.248,0,0,0-.412.275l.2.295a.449.449,0,0,0,.373.213.45.45,0,0,0,.373-.213L1.68.385A.248.248,0,0,0,1.611.042Z" transform="translate(1.857 9.948)" stroke="#000" stroke-width="0.3"/>
      <path id="Shape-12" data-name="Shape" d="M3.547,0H.248a.248.248,0,1,0,0,.5h3.3a.248.248,0,1,0,0-.5Z" transform="translate(4.33 10.836)" stroke="#000" stroke-width="0.3"/>
      <path id="Shape-13" data-name="Shape" d="M8.5,14H1.748A1.75,1.75,0,0,1,0,12.252V4A1.75,1.75,0,0,1,1.748,2.251h.807a3.492,3.492,0,0,1,1.231-.573,1.373,1.373,0,1,1,2.675,0,3.493,3.493,0,0,1,1.231.573H8.5A1.75,1.75,0,0,1,10.249,4v8.253A1.75,1.75,0,0,1,8.5,14ZM1.748,2.746A1.254,1.254,0,0,0,.5,4v8.253A1.254,1.254,0,0,0,1.748,13.5H8.5a1.254,1.254,0,0,0,1.253-1.253V4A1.254,1.254,0,0,0,8.5,2.746H8.152a1.1,1.1,0,0,1,.162.4.635.635,0,0,1-.639.726h-5.1a.635.635,0,0,1-.639-.726,1.1,1.1,0,0,1,.162-.4Zm2.237-.607C2.557,2.5,2.427,3.2,2.426,3.209a.14.14,0,0,0,.147.167h5.1a.148.148,0,0,0,.115-.047.146.146,0,0,0,.032-.12.918.918,0,0,0-.248-.4,2.688,2.688,0,0,0-1.311-.67,1.372,1.372,0,0,1-2.278,0ZM5.124.5A.878.878,0,1,0,6,1.373.879.879,0,0,0,5.124.5Z" transform="translate(0)" stroke="#000" stroke-width="0.3"/>
    </g>
    <g id="icon" transform="translate(62 103.429)">
      <path id="Stroke_1" data-name="Stroke 1" d="M3.815,1.9A1.908,1.908,0,1,1,1.908,0,1.9,1.9,0,0,1,3.815,1.9Z" transform="translate(6.186 3.647)" fill="none" stroke="#000" stroke-linecap="round" stroke-linejoin="round" stroke-miterlimit="10" stroke-width="0.9"/>
      <path id="Stroke_3" data-name="Stroke 3" d="M0,3.695V1.714A1.718,1.718,0,0,1,1.722,0H6.33A1.718,1.718,0,0,1,8.053,1.714V3.695" transform="translate(4.067 8.877)" fill="none" stroke="#000" stroke-linecap="round" stroke-linejoin="round" stroke-miterlimit="10" stroke-width="0.9"/>
      <g id="Group_11734" data-name="Group 11734" transform="translate(1 0.571)">
        <path id="Stroke_6" data-name="Stroke 6" d="M3.088,1.537A1.544,1.544,0,1,1,1.544,0,1.541,1.541,0,0,1,3.088,1.537Z" transform="translate(1.715)" fill="none" stroke="#000" stroke-linecap="round" stroke-linejoin="round" stroke-miterlimit="10" stroke-width="0.9"/>
        <path id="Stroke_8" data-name="Stroke 8" d="M0,2.991v-1.6A1.391,1.391,0,0,1,1.394,0H4.839" transform="translate(0 4.233)" fill="none" stroke="#000" stroke-linecap="round" stroke-linejoin="round" stroke-miterlimit="10" stroke-width="0.9"/>
      </g>
      <g id="Group_11735" data-name="Group 11735" transform="translate(10.354 0.571)">
        <path id="Stroke_6-2" data-name="Stroke 6" d="M0,1.537A1.544,1.544,0,1,0,1.544,0,1.541,1.541,0,0,0,0,1.537Z" transform="translate(0.036 0)" fill="none" stroke="#000" stroke-linecap="round" stroke-linejoin="round" stroke-miterlimit="10" stroke-width="0.9"/>
        <path id="Stroke_8-2" data-name="Stroke 8" d="M4.839,2.991v-1.6A1.391,1.391,0,0,0,3.445,0H0" transform="translate(0 4.233)" fill="none" stroke="#000" stroke-linecap="round" stroke-linejoin="round" stroke-miterlimit="10" stroke-width="0.9"/>
      </g>
    </g>
    <g id="_152" data-name="152" transform="translate(84 103)">
      <path id="Shape-14" data-name="Shape" d="M11.06,15H1.873A1.875,1.875,0,0,1,0,13.127V8.074A1.853,1.853,0,0,1,.349,6.988a1.876,1.876,0,0,1,.891-.674V5.226a5.226,5.226,0,1,1,10.453,0V6.314a1.876,1.876,0,0,1,.891.674,1.852,1.852,0,0,1,.349,1.086v5.053A1.875,1.875,0,0,1,11.06,15ZM1.873,6.732A1.344,1.344,0,0,0,.53,8.074v5.053a1.344,1.344,0,0,0,1.342,1.342H11.06A1.344,1.344,0,0,0,12.4,13.127V8.074A1.344,1.344,0,0,0,11.06,6.732ZM6.467,1.9A3.328,3.328,0,0,1,9.791,5.226V6.2H11.06c.026,0,.052,0,.077,0l.025,0v-.98a4.7,4.7,0,0,0-9.391,0v.98l.029,0c.024,0,.048,0,.073,0H3.142V5.226A3.328,3.328,0,0,1,6.467,1.9Zm0,.53A2.8,2.8,0,0,0,3.672,5.226V6.2H9.26V5.226A2.8,2.8,0,0,0,6.466,2.432Z" transform="translate(0)" stroke="#000" stroke-width="0.3"/>
      <path id="Shape-15" data-name="Shape" d="M1.754,5.161h-.5a.6.6,0,0,1-.6-.6V2.752a1.506,1.506,0,1,1,1.688,0V4.565A.6.6,0,0,1,1.754,5.161ZM1.506.531a.975.975,0,0,0-.455,1.837.264.264,0,0,1,.141.234V4.565a.066.066,0,0,0,.066.065h.5a.066.066,0,0,0,.066-.065V2.6a.265.265,0,0,1,.141-.235A.975.975,0,0,0,1.506.531Z" transform="translate(4.961 8.02)" stroke="#000" stroke-width="0.3"/>
    </g>
    <g id="_39" data-name="39" transform="translate(104 103)">
      <path id="Shape-16" data-name="Shape" d="M10.014,14H1.892A1.827,1.827,0,0,1,0,12.252V1.748A1.827,1.827,0,0,1,1.892,0H7.659A1.224,1.224,0,0,1,8.4.285l3.2,2.952a1.042,1.042,0,0,1,.308.687v8.328A1.827,1.827,0,0,1,10.014,14ZM1.892.5A1.309,1.309,0,0,0,.536,1.748v10.5A1.309,1.309,0,0,0,1.893,13.5h8.121a1.309,1.309,0,0,0,1.356-1.253V3.924a.3.3,0,0,0-.006-.053H8.8a1.043,1.043,0,0,1-1.08-1V.5A.363.363,0,0,0,7.659.5H1.892Zm6.359.35V2.874a.525.525,0,0,0,.544.5h2.2L8.252.846h0Z" transform="translate(0)" stroke="#000" stroke-width="0.2"/>
      <path id="Shape-17" data-name="Shape" d="M.334.379H7.748c.184,0,.334-.085.334-.19S7.933,0,7.748,0H.334C.149,0,0,.085,0,.19S.149.379.334.379Z" transform="translate(1.912 9.837)" stroke="#000" stroke-width="0.2"/>
      <path id="Shape-18" data-name="Shape" d="M.334.379H7.748c.184,0,.334-.085.334-.19S7.933,0,7.748,0H.334C.149,0,0,.085,0,.19S.149.379.334.379Z" transform="translate(1.912 7.189)" stroke="#000" stroke-width="0.2"/>
      <path id="Shape-19" data-name="Shape" d="M.19.379H2.681a.19.19,0,0,0,0-.379H.19a.19.19,0,1,0,0,.379Z" transform="translate(3.115 4.54)" stroke="#000" stroke-width="0.2"/>
    </g>
    <g id="minus-box" transform="translate(123 103)">
      <path id="Shape-20" data-name="Shape" d="M11.53,14H2.47A2.473,2.473,0,0,1,0,11.53V2.47A2.473,2.473,0,0,1,2.47,0H11.53A2.473,2.473,0,0,1,14,2.47V11.53A2.473,2.473,0,0,1,11.53,14ZM2.47.823A1.649,1.649,0,0,0,.823,2.47V11.53A1.649,1.649,0,0,0,2.47,13.177H11.53a1.649,1.649,0,0,0,1.647-1.647V2.47A1.649,1.649,0,0,0,11.53.823Zm8.235,6.588H3.294V6.588h7.412v.823Z" transform="translate(0 0)"/>
    </g>
    <g id="Group_12237" data-name="Group 12237" transform="translate(-121 -168)">
      <path id="Shape-21" data-name="Shape" d="M11.53,14H2.47A2.473,2.473,0,0,1,0,11.53V2.47A2.473,2.473,0,0,1,2.47,0H11.53A2.473,2.473,0,0,1,14,2.47V11.53A2.473,2.473,0,0,1,11.53,14ZM2.47.823A1.649,1.649,0,0,0,.823,2.47V11.53A1.649,1.649,0,0,0,2.47,13.177H11.53a1.649,1.649,0,0,0,1.647-1.647V2.47A1.649,1.649,0,0,0,11.53.823Zm4.941,9.882H6.588V7.412H3.294V6.588H6.588V3.294h.823V6.588h3.294v.823H7.412V10.7Z" transform="translate(264 271)"/>
    </g>
    <g id="Group_4915" data-name="Group 4915" transform="translate(-6.89 -65.889)">
      <path id="Subtraction_4" data-name="Subtraction 4" d="M8,16a8,8,0,1,1,8-8A8.009,8.009,0,0,1,8,16Zm.165-4.538a.862.862,0,1,0,.862.862A.863.863,0,0,0,8.164,11.462ZM8.015,3.557a.738.738,0,0,0-.706.73V9.832a.694.694,0,0,0,.706.73H8.25c.324,0,.632-.385.706-.73V4.287a.694.694,0,0,0-.706-.73Z" transform="translate(188.89 167.889)"/>
    </g>
    <g id="Group_12410" data-name="Group 12410" transform="translate(-1523.3 -342.93)">
      <path id="Path_22583" data-name="Path 22583" d="M1700.117,449.789a2.305,2.305,0,0,0-.437-.691l-2.555-2.546a1.853,1.853,0,0,0-.692-.437,2.079,2.079,0,0,0-.8-.184h-8.461a.817.817,0,0,0-.621.254.85.85,0,0,0-.254.621v12.25a.864.864,0,0,0,.254.621.85.85,0,0,0,.621.254h12.25a.866.866,0,0,0,.875-.875v-8.461A2.13,2.13,0,0,0,1700.117,449.789Zm-6.379-.857a.314.314,0,0,1,.315-.315h2a.314.314,0,0,1,.315.315v2a.314.314,0,0,1-.315.315h-2a.314.314,0,0,1-.315-.315Zm3.938,8.943a.37.37,0,0,1-.368.368h-8.015a.37.37,0,0,1-.367-.368v-4.515a.37.37,0,0,1,.367-.368h8.015a.37.37,0,0,1,.368.368Z" transform="translate(0 0)"/>
      <g id="Group_12406" data-name="Group 12406" transform="translate(1690.36 454.501)">
        <path id="Path_22584" data-name="Path 22584" d="M1692.021,456.506h4.241c.137,0,.248-.146.248-.328s-.111-.328-.248-.328h-4.241c-.136,0-.248.147-.248.328a.3.3,0,0,0,.248.328" transform="translate(-1691.774 -455.85)" stroke="#000" stroke-width="0.2"/>
        <path id="Path_22585" data-name="Path 22585" d="M1692.021,458.106h4.241c.137,0,.248-.147.248-.328s-.111-.328-.248-.328h-4.241a.3.3,0,0,0-.248.328c0,.181.112.328.248.328" transform="translate(-1691.774 -455.95)" stroke="#000" stroke-width="0.2"/>
      </g>
    </g>
    <g id="Group_14600" data-name="Group 14600" transform="translate(0 40)">
      <g id="_x32__2_" transform="translate(-7 102)">
        <g id="Group_4560" data-name="Group 4560" transform="translate(10 1)">
          <path id="Path_2111" data-name="Path 2111" d="M10.369.875h3.194A.413.413,0,0,0,14,.438.413.413,0,0,0,13.563,0H9.188A.41.41,0,0,0,8.75.438V4.813a.438.438,0,0,0,.875,0V1.487A6.117,6.117,0,1,1,.875,7,6.056,6.056,0,0,1,6.125.962V.088A6.925,6.925,0,0,0,0,7,7,7,0,0,0,14,7,6.946,6.946,0,0,0,10.369.875Z" fill="#212121"/>
        </g>
      </g>
      <rect id="Rectangle_7936" data-name="Rectangle 7936" width="20" height="20" transform="translate(0 100)" fill="none"/>
    </g>
    <g id="Group_14086" data-name="Group 14086" transform="translate(2 142)">
      <rect id="Rectangle_7668" data-name="Rectangle 7668" width="16" height="16" transform="translate(20)" fill="#fff" opacity="0"/>
      <g id="Group_14086-2" data-name="Group 14086">
        <path id="Path_22914" data-name="Path 22914" d="M33.5,13.5h-10a1,1,0,0,1-1-1V2.5" fill="none" stroke="#212121" stroke-linecap="round" stroke-linejoin="round" stroke-width="1"/>
        <path id="Path_22915" data-name="Path 22915" d="M28.5,2.5h5v5" fill="none" stroke="#212121" stroke-linecap="round" stroke-linejoin="round" stroke-width="1"/>
        <path id="Path_22916" data-name="Path 22916" d="M33.5,2.5l-6,6" fill="none" stroke="#212121" stroke-linecap="round" stroke-linejoin="round" stroke-width="1"/>
      </g>
    </g>
    <g id="selected_radio" data-name="selected radio" transform="translate(42 142)">
      <g id="Path_11863" data-name="Path 11863" fill="none">
        <path d="M8,0A8,8,0,1,1,0,8,8,8,0,0,1,8,0Z" stroke="none"/>
        <path d="M 8 1 C 4.140190124511719 1 1 4.140190124511719 1 8 C 1 11.85980987548828 4.140190124511719 15 8 15 C 11.85980987548828 15 15 11.85980987548828 15 8 C 15 4.140190124511719 11.85980987548828 1 8 1 M 8 0 C 12.41827964782715 0 16 3.581720352172852 16 8 C 16 12.41827964782715 12.41827964782715 16 8 16 C 3.581720352172852 16 0 12.41827964782715 0 8 C 0 3.581720352172852 3.581720352172852 0 8 0 Z" stroke="none"/>
      </g>
      <circle id="Ellipse_347" data-name="Ellipse 347" cx="4" cy="4" r="4" transform="translate(4 4)"/>
    </g>
    <g id="Path_11865" data-name="Path 11865" transform="translate(62 142)" fill="none">
      <path d="M8,0A8,8,0,1,1,0,8,8,8,0,0,1,8,0Z" stroke="none"/>
      <path d="M 8 1 C 4.140190124511719 1 1 4.140190124511719 1 8 C 1 11.85980987548828 4.140190124511719 15 8 15 C 11.85980987548828 15 15 11.85980987548828 15 8 C 15 4.140190124511719 11.85980987548828 1 8 1 M 8 0 C 12.41827964782715 0 16 3.581720352172852 16 8 C 16 12.41827964782715 12.41827964782715 16 8 16 C 3.581720352172852 16 0 12.41827964782715 0 8 C 0 3.581720352172852 3.581720352172852 0 8 0 Z" stroke="none"/>
    </g>
    <g id="Group_14124" data-name="Group 14124" transform="translate(-982 -42)">
      <g id="Group_14123" data-name="Group 14123" transform="translate(1061.5 181.75)">
        <circle id="Ellipse_1939" data-name="Ellipse 1939" cx="6" cy="6" r="6" transform="translate(4.5 4.25)" stroke-width="1" stroke="#000" stroke-linecap="round" stroke-linejoin="round" fill="none"/>
        <line id="Line_1254" data-name="Line 1254" x2="7.2" transform="translate(6.9 10.25)" fill="none" stroke="#000" stroke-linecap="round" stroke-linejoin="round" stroke-width="1"/>
      </g>
      <rect id="Rectangle_7691" data-name="Rectangle 7691" width="16" height="16" transform="translate(1064 184)" fill="none"/>
    </g>
    <g id="Group_14597" data-name="Group 14597" transform="translate(0 40)">
      <g id="Group_161-2" data-name="Group 161" transform="translate(104 104)">
        <line id="Line_24-2" data-name="Line 24" y1="12" transform="translate(6)" fill="none" stroke="#000" stroke-linecap="round" stroke-linejoin="round" stroke-width="1"/>
        <line id="Line_25-2" data-name="Line 25" x2="12" transform="translate(0 6)" fill="none" stroke="#000" stroke-linecap="round" stroke-linejoin="round" stroke-width="1"/>
      </g>
      <rect id="Rectangle_7933" data-name="Rectangle 7933" width="20" height="20" transform="translate(100 100)" fill="none"/>
    </g>
    <g id="Group_14598" data-name="Group 14598" transform="translate(0 40)">
      <path id="Path_22954" data-name="Path 22954" d="M347.284,1877.25h-1.85l-1.309,1.928-1.309-1.928h-1.85l2.217,3.315-2.5,3.685h3.585V1883h-.828l.686-1.025,1.523,2.277h1.92l-2.5-3.685Zm2.193-2.524-1.953-1.953a3.04,3.04,0,0,0-1.867-.774h-6.562a1.1,1.1,0,0,0-1.094,1.094v11.813a1.1,1.1,0,0,0,1.094,1.094h10.063a1.1,1.1,0,0,0,1.094-1.094v-8.312A3.044,3.044,0,0,0,349.477,1874.726Zm-.619.619a1.115,1.115,0,0,1,.127.154H346.75v-2.235a1.154,1.154,0,0,1,.155.127Zm.517,9.561a.221.221,0,0,1-.219.219H339.094a.221.221,0,0,1-.219-.219v-11.812a.221.221,0,0,1,.219-.219h6.563a1.253,1.253,0,0,1,.219.023v3.477h3.477a1.2,1.2,0,0,1,.023.219Z" transform="translate(-214 -1769)"/>
      <rect id="Rectangle_7934" data-name="Rectangle 7934" width="20" height="20" transform="translate(120 100)" fill="none"/>
    </g>
    <g id="Group_14599" data-name="Group 14599" transform="translate(0 40)">
      <rect id="Rectangle_7935" data-name="Rectangle 7935" width="20" height="20" transform="translate(140 100)" fill="none"/>
    </g>
    <g id="Group_14630" data-name="Group 14630">
      <g id="ic_check_box_24px" transform="translate(-1 119)">
        <g id="Group_14121" data-name="Group 14121" transform="translate(3 3)">
          <path id="Path_22915-2" data-name="Path 22915" d="M17.222,3H4.778A1.777,1.777,0,0,0,3,4.778V17.222A1.777,1.777,0,0,0,4.778,19H17.222A1.777,1.777,0,0,0,19,17.222V4.778A1.777,1.777,0,0,0,17.222,3Zm-8,12.444L4.778,11,6.031,9.747l3.191,3.182,6.747-6.747,1.253,1.262Z" transform="translate(-3 -3)"/>
        </g>
      </g>
      <rect id="Rectangle_7956" data-name="Rectangle 7956" width="20" height="20" transform="translate(0 120)" fill="none"/>
    </g>
    <g id="Group_14631" data-name="Group 14631">
      <g id="Group_14207" data-name="Group 14207" transform="translate(-1 97)">
        <g id="pencil">
          <g id="Group_14123-2" data-name="Group 14123">
            <line id="Line_1254-2" data-name="Line 1254" x2="3" y2="3" transform="translate(31.5 29.5)" fill="none" stroke="#212121" stroke-miterlimit="10" stroke-width="1"/>
            <path id="Path_22916-2" data-name="Path 22916" d="M28.569,38.4,25,39l.595-3.569,8.082-8.083a1.19,1.19,0,0,1,1.682,0h0l1.293,1.293a1.19,1.19,0,0,1,0,1.682h0Z" fill="none" stroke="#212121" stroke-linecap="square" stroke-miterlimit="10" stroke-width="1"/>
          </g>
        </g>
      </g>
      <rect id="Rectangle_7956-2" data-name="Rectangle 7956" width="20" height="20" transform="translate(20 120)" fill="none"/>
    </g>
    <g id="Group_14632" data-name="Group 14632">
      <g id="Group_14208" data-name="Group 14208" transform="translate(22.5 122.5)">
        <path id="Path_22934" data-name="Path 22934" d="M32.5,6.5V14a.5.5,0,0,1-.5.5H24a.5.5,0,0,1-.5-.5V6.5" fill="none" stroke="#212121" stroke-linecap="round" stroke-miterlimit="10" stroke-width="1"/>
        <line id="Line_1254-3" data-name="Line 1254" x2="13" transform="translate(21.5 3.5)" fill="none" stroke="#212121" stroke-linecap="round" stroke-miterlimit="10" stroke-width="1"/>
        <line id="Line_1255" data-name="Line 1255" y2="4" transform="translate(27.5 7.5)" fill="none" stroke="#212121" stroke-linecap="round" stroke-miterlimit="10" stroke-width="1"/>
        <path id="Line_1256" data-name="Line 1256" d="M25,11" fill="none" stroke="#212121" stroke-linecap="round" stroke-miterlimit="10" stroke-width="1"/>
        <path id="Line_1256-2" data-name="Line 1256" d="M25,7" fill="none" stroke="#212121" stroke-linecap="round" stroke-miterlimit="10" stroke-width="1"/>
        <path id="Line_1257" data-name="Line 1257" d="M29,11" fill="none" stroke="#212121" stroke-linecap="round" stroke-miterlimit="10" stroke-width="1"/>
        <path id="Line_1257-2" data-name="Line 1257" d="M29,7" fill="none" stroke="#212121" stroke-linecap="round" stroke-miterlimit="10" stroke-width="1"/>
        <path id="Path_22935" data-name="Path 22935" d="M25.5,3.5v-2h5v2" fill="none" stroke="#212121" stroke-linecap="round" stroke-miterlimit="10" stroke-width="1"/>
      </g>
      <rect id="Rectangle_7956-3" data-name="Rectangle 7956" width="20" height="20" transform="translate(40 120)" fill="none"/>
    </g>
    <g id="Group_14633" data-name="Group 14633">
      <g id="Group_14596" data-name="Group 14596" transform="translate(-1082 -103)">
        <circle id="Ellipse_364" data-name="Ellipse 364" cx="8" cy="8" r="8" transform="translate(1144 225)" fill="none" stroke="#000" stroke-linecap="round" stroke-miterlimit="10" stroke-width="1.2"/>
        <path id="Path_7246" data-name="Path 7246" d="M7.75,11.75l3,3,5.5-5.5" transform="translate(1140 221)" fill="none" stroke="#000" stroke-linecap="round" stroke-miterlimit="10" stroke-width="1.2"/>
      </g>
      <rect id="Rectangle_7956-4" data-name="Rectangle 7956" width="20" height="20" transform="translate(60 120)" fill="none"/>
    </g>
    <g id="Group_14634" data-name="Group 14634">
      <g id="Group_14125" data-name="Group 14125" transform="translate(82 122)">
        <rect id="Rectangle_7694" data-name="Rectangle 7694" width="16" height="16" fill="#fff" opacity="0"/>
        <g id="_16px_a-add" data-name=" 16px a-add">
          <g id="Group_14125-2" data-name="Group 14125">
            <path id="Path_22916-3" data-name="Path 22916" d="M9.5,10.5H6.733a4,4,0,0,0-4,4H9.5" fill="none" stroke="#212121" stroke-linecap="round" stroke-linejoin="round" stroke-width="1"/>
            <circle id="Ellipse_1939-2" data-name="Ellipse 1939" cx="3.033" cy="3.033" r="3.033" transform="translate(5.033 1.5)" stroke-width="1" stroke="#212121" stroke-linecap="round" stroke-linejoin="round" fill="none"/>
            <path id="Path_22917" data-name="Path 22917" d="M13.5,9.5v4" fill="none" stroke="#212121" stroke-linecap="round" stroke-linejoin="round" stroke-width="1"/>
            <path id="Path_22918" data-name="Path 22918" d="M11.5,11.5h4" fill="none" stroke="#212121" stroke-linecap="round" stroke-linejoin="round" stroke-width="1"/>
          </g>
        </g>
      </g>
      <rect id="Rectangle_7956-5" data-name="Rectangle 7956" width="20" height="20" transform="translate(80 120)" fill="none"/>
    </g>
    <g id="Group_14635" data-name="Group 14635">
      <g id="Group_14126" data-name="Group 14126" transform="translate(102 122)">
        <rect id="Rectangle_7695" data-name="Rectangle 7695" width="16" height="16" fill="#fff" opacity="0"/>
        <g id="_16px_input" data-name=" 16px input">
          <g id="Group_14126-2" data-name="Group 14126">
            <path id="Path_22916-4" data-name="Path 22916" d="M1.5,7.5h8" fill="none" stroke="#212121" stroke-linecap="round" stroke-linejoin="round" stroke-width="1"/>
            <path id="Path_22917-2" data-name="Path 22917" d="M7.5,4.5l2.667,3L7.5,10.5" fill="none" stroke="#212121" stroke-linecap="round" stroke-linejoin="round" stroke-width="1"/>
            <path id="Path_22918-2" data-name="Path 22918" d="M1.5,4.5V2.367A.867.867,0,0,1,2.367,1.5H13.633a.867.867,0,0,1,.867.867V12.633a.867.867,0,0,1-.867.867H2.367a.867.867,0,0,1-.867-.867V10.5" fill="none" stroke="#212121" stroke-linecap="round" stroke-linejoin="round" stroke-width="1"/>
          </g>
        </g>
      </g>
      <rect id="Rectangle_7956-6" data-name="Rectangle 7956" width="20" height="20" transform="translate(100 120)" fill="none"/>
    </g>
    <g id="Group_14636" data-name="Group 14636">
      <g id="Group_14412" data-name="Group 14412" transform="translate(-54.75 -12.75)">
        <path id="Path_22965" data-name="Path 22965" d="M1,0H15a1,1,0,0,1,1,1V15a1,1,0,0,1-1,1H1a1,1,0,0,1-1-1V1A1,1,0,0,1,1,0Z" transform="translate(176.75 134.75)" fill="none" stroke="#000" stroke-linecap="round" stroke-width="1.044"/>
        <g id="Group_14376" data-name="Group 14376" transform="translate(181.25 139.25)">
          <path id="Path_22921" data-name="Path 22921" d="M186.25,138.25v7.6" transform="translate(-182.45 -138.25)" fill="none" stroke="#000" stroke-linecap="round" stroke-miterlimit="10" stroke-width="1.044"/>
          <path id="Path_22922" data-name="Path 22922" d="M180.25,144.25h7.6" transform="translate(-180.25 -140.45)" fill="none" stroke="#000" stroke-linecap="round" stroke-miterlimit="10" stroke-width="1"/>
        </g>
      </g>
      <rect id="Rectangle_7956-7" data-name="Rectangle 7956" width="20" height="20" transform="translate(120 120)" fill="none"/>
    </g>
    <g id="Group_14637" data-name="Group 14637">
      <g id="Group_14378" data-name="Group 14378" transform="translate(-67 -12.5)">
        <rect id="Rectangle_7822" data-name="Rectangle 7822" width="16" height="16" rx="1" transform="translate(209 134.5)" fill="none" stroke="#000" stroke-linecap="round" stroke-miterlimit="10" stroke-width="1.044"/>
        <path id="Path_22923" data-name="Path 22923" d="M212.5,144h7.6" transform="translate(0.5 -1.5)" fill="none" stroke="#000" stroke-linecap="round" stroke-miterlimit="10" stroke-width="1"/>
      </g>
      <rect id="Rectangle_7956-8" data-name="Rectangle 7956" width="20" height="20" transform="translate(140 120)" fill="none"/>
    </g>
    <g id="Group_14638" data-name="Group 14638">
      <g id="Group_14528" data-name="Group 14528" transform="translate(-1097 -9)">
        <g id="Rectangle_7384" data-name="Rectangle 7384" transform="translate(1259 131)" fill="none" stroke="#000" stroke-width="1">
          <rect width="16" height="16" rx="1" stroke="none"/>
          <rect x="0.5" y="0.5" width="15" height="15" rx="0.5" fill="none"/>
        </g>
        <g id="Group_13289" data-name="Group 13289" transform="translate(1265.667 143.667) rotate(-90)">
          <circle id="Ellipse_1867" data-name="Ellipse 1867" cx="1.167" cy="1.167" r="1.167"/>
          <circle id="Ellipse_1868" data-name="Ellipse 1868" cx="1.167" cy="1.167" r="1.167" transform="translate(3.5)"/>
          <circle id="Ellipse_1869" data-name="Ellipse 1869" cx="1.167" cy="1.167" r="1.167" transform="translate(7)"/>
        </g>
      </g>
      <rect id="Rectangle_7956-9" data-name="Rectangle 7956" width="20" height="20" transform="translate(160 120)" fill="none"/>
    </g>
    <g id="Group_14639" data-name="Group 14639">
      <g id="Group_11863" data-name="Group 11863" transform="translate(189 124)">
        <circle id="Ellipse_1851" data-name="Ellipse 1851" cx="1.388" cy="1.388" r="1.388" transform="translate(0 0)"/>
        <circle id="Ellipse_1851-2" data-name="Ellipse 1851" cx="1.388" cy="1.388" r="1.388" transform="translate(0 4.858)"/>
        <circle id="Ellipse_1851-3" data-name="Ellipse 1851" cx="1.388" cy="1.388" r="1.388" transform="translate(0 9.716)"/>
      </g>
      <rect id="Rectangle_7956-10" data-name="Rectangle 7956" width="20" height="20" transform="translate(180 120)" fill="none"/>
    </g>
    <rect id="Rectangle_7956-11" data-name="Rectangle 7956" width="20" height="20" transform="translate(0 140)" fill="none"/>
    <rect id="Rectangle_7956-12" data-name="Rectangle 7956" width="20" height="20" transform="translate(20 140)" fill="none"/>
    <rect id="Rectangle_7956-13" data-name="Rectangle 7956" width="20" height="20" transform="translate(40 140)" fill="none"/>
    <rect id="Rectangle_7956-14" data-name="Rectangle 7956" width="20" height="20" transform="translate(60 140)" fill="none"/>
    <rect id="Rectangle_7956-15" data-name="Rectangle 7956" width="20" height="20" transform="translate(80 140)" fill="none"/>
    <rect id="Rectangle_7956-16" data-name="Rectangle 7956" width="20" height="20" transform="translate(100 140)" fill="none"/>
    <rect id="Rectangle_7956-17" data-name="Rectangle 7956" width="20" height="20" transform="translate(120 140)" fill="none"/>
    <g id="Group_14641" data-name="Group 14641">
      <g id="Group_14545" data-name="Group 14545" transform="translate(144 143)">
        <path id="Path_22958" data-name="Path 22958" d="M349.477,1874.726l-1.953-1.953a3.04,3.04,0,0,0-1.867-.774h-6.562a1.1,1.1,0,0,0-1.094,1.094v11.813a1.1,1.1,0,0,0,1.094,1.094h10.063a1.1,1.1,0,0,0,1.094-1.094v-8.312A3.044,3.044,0,0,0,349.477,1874.726Zm-.619.619a1.115,1.115,0,0,1,.127.154H346.75v-2.235a1.154,1.154,0,0,1,.155.127Zm.517,9.561a.221.221,0,0,1-.219.219H339.094a.221.221,0,0,1-.219-.219v-11.812a.221.221,0,0,1,.219-.219h6.563a1.253,1.253,0,0,1,.219.023v3.477h3.477a1.2,1.2,0,0,1,.023.219Z" transform="translate(-338 -1872)"/>
        <g id="Group_14544" data-name="Group 14544" transform="translate(2.493 6.326)">
          <path id="Path_22955" data-name="Path 22955" d="M-125.61-10.479a1.458,1.458,0,0,1-.5.074,1.254,1.254,0,0,1-.549-.127,1.325,1.325,0,0,1-.47-.386,1.958,1.958,0,0,1-.325-.654,3.2,3.2,0,0,1-.12-.929,3.2,3.2,0,0,1,.12-.929,1.918,1.918,0,0,1,.325-.651,1.334,1.334,0,0,1,.47-.381,1.27,1.27,0,0,1,.549-.125,1.5,1.5,0,0,1,.5.074,1.282,1.282,0,0,1,.367.2l-.259.729a.718.718,0,0,0-.487-.171.613.613,0,0,0-.513.308,1.682,1.682,0,0,0-.211.94,2.4,2.4,0,0,0,.055.546,1.238,1.238,0,0,0,.157.39.734.734,0,0,0,.231.234.533.533,0,0,0,.28.078.717.717,0,0,0,.487-.178l.259.758A1.381,1.381,0,0,1-125.61-10.479Z" transform="translate(127.569 14.587)"/>
          <path id="Path_22956" data-name="Path 22956" d="M-120.039-11.645a1.229,1.229,0,0,1-.335.9,1.334,1.334,0,0,1-.991.339,1.987,1.987,0,0,1-.59-.087,1.919,1.919,0,0,1-.463-.2l.265-.773a1.381,1.381,0,0,0,.157.092,1.516,1.516,0,0,0,.2.085,1.739,1.739,0,0,0,.211.058,1,1,0,0,0,.2.022.525.525,0,0,0,.357-.118.4.4,0,0,0,.136-.317.408.408,0,0,0-.143-.339,1.686,1.686,0,0,0-.362-.212q-.151-.065-.319-.156a1.356,1.356,0,0,1-.3-.223,1.047,1.047,0,0,1-.224-.334,1.244,1.244,0,0,1-.088-.5,1.181,1.181,0,0,1,.311-.856,1.174,1.174,0,0,1,.887-.323,1.85,1.85,0,0,1,.57.081,1.856,1.856,0,0,1,.438.2l-.259.693a1.166,1.166,0,0,0-.291-.158.947.947,0,0,0-.35-.074.463.463,0,0,0-.342.119.4.4,0,0,0-.12.3.412.412,0,0,0,.139.343,1.676,1.676,0,0,0,.355.209q.163.072.334.158a1.191,1.191,0,0,1,.31.223,1.08,1.08,0,0,1,.227.339A1.273,1.273,0,0,1-120.039-11.645Z" transform="translate(125.128 14.587)"/>
          <path id="Path_22957" data-name="Path 22957" d="M-115.147-10.415h-.953l-1.187-4.032h.934l.6,2.512c.037.166.066.313.086.442.013.076.024.145.034.208h.012a1.469,1.469,0,0,1,.031-.208c.008-.065.021-.135.037-.209s.036-.152.059-.232l.6-2.512h.928Z" transform="translate(122.696 14.521)"/>
        </g>
      </g>
      <rect id="Rectangle_7956-18" data-name="Rectangle 7956" width="20" height="20" transform="translate(140 140)" fill="none"/>
    </g>
    <g id="Group_14640" data-name="Group 14640">
      <g id="Group_12310" data-name="Group 12310" transform="translate(164 143)">
        <path id="Path_22636" data-name="Path 22636" d="M-96.655,4.87V8.6h3.733" transform="translate(104.122 -4.87)" fill="none" stroke="#111" stroke-linecap="round" stroke-linejoin="round" stroke-width="1"/>
        <path id="Path_22637" data-name="Path 22637" d="M-96.655,4.87h-7.467v14h11.2V8.6Z" transform="translate(104.122 -4.87)" fill="none" stroke="#111" stroke-linecap="round" stroke-linejoin="round" stroke-width="1"/>
        <line id="Line_18" data-name="Line 18" x2="5.6" transform="translate(2.8 10.733)" fill="none" stroke="#111" stroke-linecap="round" stroke-linejoin="round" stroke-width="1"/>
        <line id="Line_19" data-name="Line 19" x2="5.6" transform="translate(2.8 8.4)" fill="none" stroke="#111" stroke-linecap="round" stroke-linejoin="round" stroke-width="1"/>
        <line id="Line_20" data-name="Line 20" x2="5.6" transform="translate(2.8 6.066)" fill="none" stroke="#111" stroke-linecap="round" stroke-linejoin="round" stroke-width="1"/>
        <line id="Line_21" data-name="Line 21" x2="1.867" transform="translate(2.8 3.733)" fill="none" stroke="#111" stroke-linecap="round" stroke-linejoin="round" stroke-width="1"/>
      </g>
      <rect id="Rectangle_7956-19" data-name="Rectangle 7956" width="20" height="20" transform="translate(160 140)" fill="none"/>
    </g>
    <rect id="Rectangle_7956-20" data-name="Rectangle 7956" width="20" height="20" transform="translate(180 140)" fill="none"/>
    <g id="Group_14687" data-name="Group 14687">
      <g id="_64px_file-download-89" data-name="64px_file-download-89" transform="translate(181 140)">
        <g id="Group_14671" data-name="Group 14671" transform="translate(1 3)">
          <path id="Path_23001" data-name="Path 23001" d="M16.2,20.548h0l-2.478-5.259A.491.491,0,0,0,13.281,15H11.07v.982h1.894L15.086,20.4H11.07v1.719a.491.491,0,0,1-.491.491H6.649a.491.491,0,0,1-.491-.491V20.4H2.143l2.121-4.421H6.158V15H3.947a.491.491,0,0,0-.447.288L1.022,20.547h0a.243.243,0,0,0-.023.1v4.667a.737.737,0,0,0,.737.737H15.491a.737.737,0,0,0,.737-.737V20.649A.243.243,0,0,0,16.2,20.548Z" transform="translate(-1 -12.053)"/>
          <path id="Path_23002" data-name="Path 23002" d="M24.266,11.015a.246.246,0,0,0,.38,0l2.211-2.7a.246.246,0,0,0-.19-.4H24.7V3.246a.246.246,0,1,0-.491,0V7.912H22.246a.246.246,0,0,0-.19.4Z" transform="translate(-16.842 -3)"/>
        </g>
      </g>
      <rect id="Rectangle_7969" data-name="Rectangle 7969" width="20" height="20" transform="translate(180 140)" fill="none"/>
    </g>
    <g id="Group_14688" data-name="Group 14688">
      <g id="Group_14679" data-name="Group 14679" transform="translate(-2 159.25)">
        <g id="Group_14678" data-name="Group 14678" transform="translate(9.24 7.99)">
          <path id="Path_23007" data-name="Path 23007" d="M14.278,7.507,12.044,9.742,8.757,13.028" transform="translate(-8.757 -7.507)" fill="none" stroke="#000" stroke-linecap="round" stroke-miterlimit="10" stroke-width="1"/>
          <path id="Path_23008" data-name="Path 23008" d="M8.757,7.507l2.235,2.235,3.286,3.286" transform="translate(-8.757 -7.507)" fill="none" stroke="#000" stroke-linecap="round" stroke-miterlimit="10" stroke-width="1"/>
        </g>
        <circle id="Ellipse_1975" data-name="Ellipse 1975" cx="7" cy="7" r="7" transform="translate(5 3.75)" fill="none" stroke="#000" stroke-linecap="round" stroke-miterlimit="10" stroke-width="1"/>
      </g>
      <rect id="Rectangle_7956-21" data-name="Rectangle 7956" width="20" height="20" transform="translate(0 160)" fill="none"/>
    </g>
    <g id="Group_14692" data-name="Group 14692">
      <g id="Group_14690" data-name="Group 14690" transform="translate(22 162)">
        <g id="_48px_preview" data-name=" 48px preview">
          <g id="Group_14690-2" data-name="Group 14690">
            <path id="Path_23009" data-name="Path 23009" d="M1.182,8.4a.707.707,0,0,1,0-.8C1.972,6.45,4.509,3.227,8.058,3.227c3.517,0,6.072,3.218,6.874,4.37a.706.706,0,0,1,0,.805c-.808,1.15-3.382,4.371-6.872,4.371C4.536,12.773,1.98,9.547,1.182,8.4Z" fill="none" stroke="#111" stroke-linecap="square" stroke-miterlimit="10" stroke-width="1"/>
            <circle id="Ellipse_1976" data-name="Ellipse 1976" cx="2.864" cy="2.864" r="2.864" transform="translate(5.194 5.136)" fill="none" stroke="#111" stroke-linecap="square" stroke-miterlimit="10" stroke-width="1"/>
          </g>
        </g>
      </g>
      <rect id="Rectangle_7956-22" data-name="Rectangle 7956" width="20" height="20" transform="translate(20 160)" fill="none"/>
    </g>
  </g>
</svg>
